<?xml version="1.0" encoding="UTF-8"?>
<svg width="40px" height="57px" viewBox="0 0 40 57" version="1.1" xmlns="http://www.w3.org/2000/svg" xmlns:xlink="http://www.w3.org/1999/xlink">
    <!-- Generator: Sketch 48.2 (47327) - http://www.bohemiancoding.com/sketch -->
    <title>Page 1</title>
    <desc>Created with Sketch.</desc>
    <defs>
        <polygon id="path-1" points="0.359313061 0.0884722222 37.8079733 0.0884722222 37.8079733 34.8210554 0.359313061 34.8210554"></polygon>
        <polygon id="path-3" points="0 0.3093636 0.725746842 0.3093636 0.725746842 1.70869197 0 1.70869197"></polygon>
    </defs>
    <g id="Mobile" stroke="none" stroke-width="1" fill="none" fill-rule="evenodd" transform="translate(-235.000000, -1017.000000)">
        <g id="Page-1" transform="translate(235.000000, 1017.000000)">
            <g id="Group-3" transform="translate(2.000000, 0.000000)">
                <mask id="mask-2" fill="white">
                    <use xlink:href="#path-1"></use>
                </mask>
                <g id="Clip-2"></g>
                <path d="M18.459336,33.8648333 C13.6586693,33.8099028 9.05154933,32.5484444 5.63104267,29.1835833 C2.88186933,26.4803194 1.58024267,22.6833056 1.37098933,18.9762222 C0.905869333,10.7361528 6.89720267,3.20386111 15.255176,1.45191667 C24.8367493,-0.555722222 34.429976,4.63740278 36.451576,13.9503194 C38.3069893,22.5005278 32.885656,30.7843472 24.232296,33.1628889 C22.3571227,33.6776806 20.4013893,33.8419861 18.459336,33.8648333 C17.8168827,33.8726111 17.816376,34.8283056 18.459336,34.8210139 C26.693176,34.7233056 34.0048827,30.7085139 36.810296,23.0619861 C39.2326693,16.4591389 37.149256,8.619625 31.595176,4.08031944 C25.305416,-1.06030556 15.0231227,-1.13030556 8.328536,3.26122222 C2.59104267,7.02469444 -0.437810667,14.1962917 0.541069333,20.7374028 C1.09586933,24.4435139 2.73544267,27.8496944 5.559096,30.4635139 C8.99226933,33.6417083 13.8177627,34.7675417 18.459336,34.8210139 C19.102296,34.8283056 19.1017893,33.8726111 18.459336,33.8648333" id="Fill-1" fill="#2E2B28" mask="url(#mask-2)"></path>
            </g>
            <path d="M15.0056008,34.601487 C15.657816,39.2912651 16.1684906,44.0121818 17.0972036,48.6552519 C17.2180539,49.2590505 18.1096184,49.0031294 17.9887681,48.4007904 C17.0600551,43.7577204 16.5493805,39.0368036 15.8971653,34.3475121 C15.8125231,33.7383615 14.9214289,33.9981749 15.0056008,34.601487" id="Fill-4" fill="#2E2B28"></path>
            <path d="M28.0270124,33.3361588 C26.6452712,38.2590097 25.7670331,43.3632796 25.005994,48.4049912 C24.915957,49.0017004 25.8686391,49.2586703 25.9596821,48.6566677 C26.7207212,43.6149561 27.5989593,38.5111675 28.9807005,33.5873541 C29.1466905,32.9973819 28.1919964,32.7466678 28.0270124,33.3361588" id="Fill-6" fill="#2E2B28"></path>
            <path d="M16.8610788,49.1088133 C20.0152817,49.0924083 23.2279441,48.9250774 26.3617906,49.3844171 C26.2422618,49.1640434 26.122733,48.9436698 26.0032042,48.7232961 C25.7260436,50.7432967 26.044961,52.8666488 25.6049489,54.8505584 C25.1863372,56.736585 19.6812275,55.751739 18.1905104,55.6352636 C16.8010535,55.5264439 17.1752986,53.0214025 17.1909574,51.8812559 C17.2060942,50.778294 17.2729051,49.6698638 17.3741653,48.5712766 C17.4378444,47.8811735 16.4106276,47.8877355 16.3479924,48.5712766 C16.1757457,50.4387108 15.1260846,56.3920803 17.7886013,56.6742461 C19.2448691,56.8284529 20.7147078,56.8672781 22.1767171,56.9077437 C23.2248124,56.9356322 24.8282728,57.2609977 25.7406585,56.4948849 C27.5899619,54.9413327 26.7005425,51.1424847 26.99284,49.0087429 C27.0283332,48.7506378 26.9354244,48.3913686 26.6342536,48.3476219 C23.4038446,47.8735178 20.1134102,48.0162412 16.8610788,48.033193 C16.1992338,48.0370209 16.1987119,49.1126411 16.8610788,49.1088133" id="Fill-8" fill="#2E2B28"></path>
            <path d="M16.3517143,52 L25.6486705,52 C26.1171098,52 26.1171098,51 25.6486705,51 L16.3517143,51 C15.8827619,51 15.8827619,52 16.3517143,52" id="Fill-10" fill="#2E2B28"></path>
            <path d="M20.2082546,1.07222588 C14.7108267,4.06721744 12.8978164,11.5256427 12.2343616,16.8390197 C11.4086931,23.4548881 12.5923136,31.4042713 18.5698945,35.8814931 C19.0949267,36.2754414 19.8519248,35.5939109 19.3220262,35.1975005 C13.6212902,30.9271015 12.6415184,23.5834137 13.248739,17.2827039 C13.7359213,12.2253932 15.5278438,4.75071765 20.7451825,1.90838103 C21.3329374,1.58829808 20.7981723,0.750665618 20.2082546,1.07222588" id="Fill-12" fill="#2E2B28"></path>
            <path d="M22.2628017,1.88562352 C27.1568067,4.23821388 28.2615952,11.6190708 28.7385782,16.0498232 C29.390899,22.1013571 28.8558254,29.1805375 24.9141874,34.3046593 C24.5251399,34.811184 25.4338057,35.2885141 25.8191227,34.7878284 C29.9813986,29.3761407 30.4226744,21.9490591 29.7367783,15.5841709 C29.23528,10.9286208 27.8991948,3.51467678 22.7920129,1.05990566 C22.1945851,0.772339804 21.664308,1.59805766 22.2628017,1.88562352" id="Fill-14" fill="#2E2B28"></path>
            <path d="M5.08434842,11.0300595 C5.80194154,11.7989457 6.51953465,12.568264 7.23712776,13.3375824 C7.34092426,13.4486581 7.53304759,13.4413107 7.66528832,13.3851245 C8.98969174,12.8275848 10.3056118,12.2523248 11.6055631,11.6532938 C11.9967961,11.4734981 12.3825398,11.2867871 12.7652894,11.0944575 C13.0387533,10.9574497 13.5193111,10.8610688 13.148039,10.6929425 C13.539272,10.870145 13.9300059,11.0482119 14.3212389,11.2262789 C15.8602216,11.9260128 17.3992043,12.626179 18.9386861,13.3259129 C19.3463868,13.5117595 20.298021,14.1924766 20.7960446,13.9474185 C23.1843621,12.7731274 25.5731787,11.5984042 27.9614963,10.4245454 C28.0647937,10.3735457 27.4829345,10.3186561 27.8422301,10.4608503 C28.0692849,10.5511804 28.2963398,10.6410783 28.5233946,10.730544 C29.2809095,11.0304917 30.0379253,11.3308716 30.7949411,11.6312515 C31.9426909,12.0854951 33.0909396,12.5406031 34.2381904,12.9957111 C34.4108519,13.0639989 34.620441,13.0410923 34.7217423,12.8854998 C35.4647856,11.7431917 36.2083278,10.6013158 36.951371,9.45900766 C37.1754317,9.1145432 36.5651283,8.80638366 36.3410676,9.14998371 C35.5980243,10.292724 34.8549811,11.4350321 34.1114389,12.576908 C34.2731219,12.5401709 34.4338069,12.5034338 34.5949909,12.4666967 C32.5584836,11.6597768 30.5209782,10.8528569 28.4844709,10.0455049 C27.1655567,9.52254126 25.4574057,10.9513988 24.3261236,11.5080742 C23.1888533,12.0669105 22.051583,12.626179 20.9148117,13.1854475 C20.4182852,13.4300735 20.3788625,13.2909046 20.713706,13.4430395 C20.3983244,13.2999809 20.0839407,13.15649 19.7685591,13.0134314 C17.6746643,12.0608597 15.5812685,11.1087201 13.4873737,10.1561484 C13.3850743,10.1094707 13.2308766,10.0900216 13.1310723,10.1561484 C11.5761209,11.1847876 9.62195215,11.8689623 7.87487741,12.6162384 C7.69522962,12.6936024 7.51458379,12.7696698 7.33393795,12.8461695 C7.70421201,12.9533554 7.80301829,12.9352029 7.63235289,12.7925765 C7.48065032,12.630501 7.32994578,12.4684255 7.17874223,12.30635 C6.64728418,11.7367087 6.11582614,11.1666351 5.5843681,10.5969938 C5.29743066,10.2896986 4.80140316,10.7257898 5.08434842,11.0300595" id="Fill-16" fill="#2E2B28"></path>
            <path d="M3.0896704,20.1171815 C4.23195506,21.5429325 5.49630042,22.8617122 6.7891266,24.1373842 C6.87711202,24.2235998 7.01951616,24.2810769 7.13954251,24.2337115 C8.8382205,23.5668709 10.4779025,22.7174873 12.0016268,21.6882218 C12.5834495,21.2959939 15.3130317,23.5578236 16.0189494,24.0016744 C17.4679116,24.9127926 18.927554,25.8042196 20.3907566,26.6892603 C21.0325924,27.0772306 21.1627905,27.1075657 21.8153066,26.7483339 C24.4223196,25.3135356 27.028824,23.8776729 29.6353284,22.4423424 C30.1998591,22.1315404 29.562092,22.2097731 29.8179109,22.353998 C30.4256714,22.6983283 31.0329234,23.0421264 31.6406839,23.3859245 C32.8195868,24.0532973 33.9979811,24.7201379 35.1773925,25.3875107 C35.3579406,25.4896922 35.5583236,25.4274254 35.6702126,25.251801 C37.0927282,23.0187098 38.5157525,20.7856187 39.9387768,18.5519953 C40.19663,18.1464626 39.5725947,17.7696684 39.3162672,18.1720079 C37.8942601,20.4050991 36.4712359,22.6381902 35.047703,24.8723458 C35.212485,24.8271092 35.3767583,24.7818726 35.5405231,24.736636 C33.6984238,23.6940656 31.8558159,22.6514951 30.013208,21.6089247 C29.6490602,21.4019007 29.0646947,21.9053574 28.7651374,22.0708701 C27.4478991,22.7962522 26.1306607,23.5211021 24.8124052,24.2470164 L21.4521761,26.0974592 C20.894257,26.4045358 21.0544616,26.2198641 21.2451815,26.3348182 C20.8718792,26.1102319 20.4985769,25.8840489 20.1262918,25.6578659 C17.5523369,24.0964051 14.8019026,22.6200956 12.4400281,20.7159011 C12.347974,20.6413938 12.1699689,20.6477801 12.0768976,20.7159011 C10.5058747,21.8681038 8.77769874,22.7733678 6.98798381,23.4918314 C7.22549358,23.3965684 7.37044065,23.6770353 6.99917271,23.3066274 C6.6375679,22.9447347 6.28155755,22.5769878 5.92605578,22.2081765 C5.1163865,21.367308 4.33214655,20.4992976 3.5992738,19.5844541 C3.30022509,19.2113852 2.79367321,19.747838 3.0896704,20.1171815" id="Fill-18" fill="#2E2B28"></path>
            <path d="M7.05060871,19 C5.18546655,17.9685847 6.09414724,14.3735551 7.52883945,16.8592329 C10.2075236,15.2180057 8.72505056,18.859051 7.05060871,19" id="Fill-20" fill="#2E2B28"></path>
            <path d="M19.8834849,20.9996559 C17.7354093,20.9529632 17.0014199,15.8205152 19.9674239,19.0869217 C23.2729993,16.4045912 22.0315604,21.0459317 19.8834849,20.9996559" id="Fill-22" fill="#2E2B28"></path>
            <path d="M33.8152637,17.9999202 C32.1155882,18.0213156 30.8954711,13.7293245 33.5284807,15.8910638 C35.0012683,13.3902282 35.8013256,16.8255972 33.8152637,17.9999202" id="Fill-24" fill="#2E2B28"></path>
            <path d="M31.9583128,37 C31.9583128,37 31.9717537,37.1030303 31.982244,37.2787879 C31.9930622,37.4545455 32.0038805,37.7034965 31.9986353,37.997669 C31.997324,38.2923077 31.9789658,38.6307692 31.9517564,38.9911422 C31.9222522,39.3501166 31.8770124,39.7296037 31.8206266,40.1044289 C31.7622738,40.4815851 31.6924472,40.8545455 31.6150806,41.1995338 C31.5344358,41.5435897 31.4528075,41.8620047 31.3679009,42.1286713 C31.2869283,42.3972028 31.2046443,42.6144522 31.1443246,42.7655012 C31.0836771,42.9165501 31.0413877,43 31.0413877,43 C31.0413877,43 31.0279469,42.8955711 31.0174565,42.7184149 C31.0066383,42.5412587 30.9961479,42.2899767 31.0013931,41.9962704 C31.0023766,41.7002331 31.0207348,41.3622378 31.0476164,41.0032634 C31.0774484,40.6447552 31.1226882,40.2685315 31.179074,39.8951049 C31.2370989,39.5202797 31.3072534,39.1491841 31.38462,38.8055944 C31.464937,38.4624709 31.5465653,38.1449883 31.6317996,37.8773893 C31.7124445,37.6088578 31.7944006,37.3892774 31.855376,37.2368298 C31.9163513,37.0848485 31.9583128,37 31.9583128,37" id="Fill-26" fill="#2E2B28"></path>
            <path d="M30.6247895,45 C30.6247895,45 30.6602552,45.0277033 30.7022147,45.0710456 C30.7456727,45.1143878 30.7961239,45.1729223 30.8390824,45.2372654 C30.8615606,45.2676497 30.8730495,45.3069705 30.8970263,45.3319929 C30.9200041,45.3583557 30.9419829,45.3815907 30.9579674,45.4030384 C30.9919346,45.4526363 31.0009259,45.4669348 30.9999268,45.5290438 C30.9949317,45.6394102 30.9040196,45.7484361 30.7766427,45.8449508 C30.7117055,45.8900804 30.6432717,45.9294013 30.5853277,45.9571046 C30.5288822,45.9839142 30.4849247,46 30.4849247,46 C30.4849247,46 30.4409672,45.9839142 30.3855209,45.9562109 C30.3285759,45.9280608 30.2601421,45.8873995 30.1957044,45.8382484 C30.0653304,45.743521 29.9909024,45.5996425 30.0008927,45.4566577 C30.0028908,45.3914209 30.0463488,45.2819482 30.0963005,45.2131367 C30.1487498,45.1349419 30.2171836,45.0808758 30.2946087,45.0625559 C30.3725334,45.0370867 30.4514571,45.0201072 30.5153953,45.0107239 C30.5783344,45.0017873 30.6247895,45 30.6247895,45" id="Fill-28" fill="#2E2B28"></path>
            <path d="M1.22204697,25 C1.22204697,25 1.2766464,25.0846736 1.34999716,25.2344481 C1.38584527,25.3089099 1.43272357,25.3995405 1.47243225,25.5046379 C1.50938339,25.6114373 1.57666754,25.7220662 1.63512754,25.8407795 C1.69579358,25.9586418 1.7614232,26.085014 1.81326509,26.2177687 C1.87944622,26.3517998 1.96823924,26.4917879 2.03497188,26.637733 C2.06916546,26.7109182 2.10391056,26.7849545 2.13920716,26.8602672 C2.18057037,26.933878 2.22193358,27.0083397 2.26329679,27.083227 C2.34271414,27.2342779 2.42157999,27.3874564 2.50210037,27.5406348 C2.59089339,27.6899838 2.68134094,27.8397583 2.75910377,27.9908093 C2.83300603,28.1444132 2.93282924,28.2831248 3.01555566,28.4252404 C3.10710622,28.5626755 3.16556622,28.7128755 3.25601377,28.8375457 C3.34590981,28.961365 3.4214666,29.0860352 3.4915083,29.203472 C3.56099849,29.3213344 3.62552509,29.4298358 3.69556679,29.5191899 C3.76395396,29.6098204 3.81634736,29.6961961 3.86267415,29.7664029 C3.9531217,29.9085184 4,30 4,30 C4,30 3.8891466,29.9651094 3.70659698,29.8868181 C3.61559792,29.8476725 3.50253849,29.800017 3.38010339,29.7374692 C3.31833434,29.706408 3.2521532,29.6732193 3.18266302,29.6383287 C3.11979094,29.599183 3.0591249,29.5532295 2.99239226,29.507276 C2.85892698,29.4157944 2.71498301,29.3141009 2.57269358,29.1975151 C2.42599207,29.0843332 2.30410848,28.9490256 2.17009169,28.8098885 C2.04103848,28.6690494 1.89764603,28.5260829 1.79837433,28.362267 C1.68752093,28.2031316 1.58494018,28.0380393 1.4812564,27.872096 C1.39522093,27.7014722 1.31966414,27.527019 1.25017395,27.3546932 C1.17241112,27.1849204 1.1244298,27.0104672 1.09133923,26.8394179 C1.05273357,26.6696451 1.02460659,26.5062548 1.00640678,26.3475449 C0.995928101,26.185431 1.00034018,26.0326781 1.00530376,25.893541 C0.997582629,25.6127138 1.08858169,25.4016679 1.13104791,25.2442345 C1.18068376,25.0893541 1.22204697,25 1.22204697,25" id="Fill-30" fill="#2E2B28"></path>
            <g id="Group-34" transform="translate(0.000000, 29.000000)">
                <mask id="mask-4" fill="white">
                    <use xlink:href="#path-3"></use>
                </mask>
                <g id="Clip-33"></g>
                <path d="M0.0841,0.30945 C0.0841,0.30945 0.117433333,0.30795 0.164433333,0.31745 C0.2121,0.32495 0.272766667,0.34395 0.335433333,0.37545 C0.460433333,0.43945 0.5781,0.56995 0.648433333,0.74445 C0.7171,0.91545 0.738766667,1.13145 0.718433333,1.33045 C0.708433333,1.43045 0.691766667,1.52295 0.674766667,1.59245 C0.658766667,1.66195 0.643433333,1.70845 0.643433333,1.70845 C0.643433333,1.70845 0.610766667,1.71045 0.563766667,1.70295 C0.516766667,1.69645 0.4561,1.67945 0.3931,1.64795 C0.268433333,1.58595 0.1501,1.45145 0.0791,1.27245 C0.00943333333,1.09695 -0.0132333333,0.87895 0.0071,0.67945 C0.0174333333,0.58045 0.0347666667,0.48945 0.0517666667,0.42195 C0.0684333333,0.35395 0.0841,0.30945 0.0841,0.30945" id="Fill-32" fill="#2E2B28" mask="url(#mask-4)"></path>
            </g>
            <path d="M14.4997263,25 C15.1667579,25 15.1667579,24 14.4997263,24 C13.8334246,24 13.8334246,25 14.4997263,25" id="Fill-35" fill="#2E2B28"></path>
            <path d="M16,25.3929699 L16,25.6070301 C16,26.13099 17,26.13099 17,25.6070301 L17,25.3929699 C17,24.86901 16,24.86901 16,25.3929699" id="Fill-37" fill="#2E2B28"></path>
            <path d="M18.4997263,27 C19.1667579,27 19.1667579,26 18.4997263,26 C17.8334246,26 17.8334246,27 18.4997263,27" id="Fill-39" fill="#2E2B28"></path>
            <path d="M21.5002737,28 C22.1665754,28 22.1665754,27 21.5002737,27 C20.8332421,27 20.8332421,28 21.5002737,28" id="Fill-41" fill="#2E2B28"></path>
            <path d="M23.5,27 C24.1666667,27 24.1666667,26 23.5,26 C22.8333333,26 22.8333333,27 23.5,27" id="Fill-43" fill="#2E2B28"></path>
            <path d="M26.3930619,25 L26.6069381,25 C27.1310206,25 27.1310206,24 26.6069381,24 L26.3930619,24 C25.8689794,24 25.8689794,25 26.3930619,25" id="Fill-45" fill="#2E2B28"></path>
            <path d="M30.0000012,25.3875756 C30.0011332,25.790009 30.209991,25.9983008 30.6124244,25.9999988 C31.1291919,26.0011308 31.1291919,25.1996602 30.6124244,25.1979621 C30.5807278,25.1985281 30.5484652,25.1979621 30.5167687,25.1968301 C30.8337345,25.2053203 30.8026039,25.6671847 30.8020379,25.3875756 C30.8003398,24.8708081 29.9988692,24.8708081 30.0000012,25.3875756" id="Fill-47" fill="#2E2B28"></path>
            <path d="M32.0000012,26.3877951 C32.0011336,26.7904564 32.2100653,26.9982998 32.6120749,26.9999988 C33.1295914,27.0011315 33.1290252,26.1992069 32.6120749,26.1975079 C32.5803671,26.1980742 32.5486593,26.1975079 32.5169515,26.1963752 C32.8340295,26.2048702 32.8028879,26.6669962 32.8023217,26.3877951 C32.800623,25.870735 31.9988688,25.870735 32.0000012,26.3877951" id="Fill-49" fill="#2E2B28"></path>
            <path d="M35.3244973,26.1164781 C35.2553138,26.1862327 35.1861304,26.2554293 35.116389,26.3246259 C34.7559656,26.6856758 35.3150124,27.2442709 35.6754358,26.8832209 C35.7446192,26.8140243 35.8138027,26.7448277 35.883544,26.6756312 C36.2439674,26.3145812 35.6854786,25.7559862 35.3244973,26.1164781" id="Fill-51" fill="#2E2B28"></path>
            <path d="M37.5002737,26 C38.1665754,26 38.1665754,25 37.5002737,25 C36.8332421,25 36.8332421,26 37.5002737,26" id="Fill-53" fill="#2E2B28"></path>
            <path d="M25.8469194,25.5902715 C25.8522985,25.4933899 25.8403449,25.5161152 25.8098633,25.6578494 C25.7596582,25.7086824 25.7088555,25.7589173 25.6586504,25.8097502 C25.5164028,25.84025 25.4936909,25.8522107 25.590515,25.8468284 C26.1361961,25.8438382 26.1367938,24.9964232 25.590515,25.0000114 C25.2139771,25.0024035 25.0023986,25.2135097 25.0000079,25.5902715 C24.9970195,26.1368751 25.843931,26.1362771 25.8469194,25.5902715" id="Fill-55" fill="#2E2B28"></path>
            <path d="M4,24.4151887 L4,24.5843565 C4,25.1385478 5,25.1385478 5,24.5843565 L5,24.4151887 C5,23.8616038 4,23.8616038 4,24.4151887" id="Fill-57" fill="#2E2B28"></path>
            <path d="M6,25.4151258 L6,25.5848742 C6,26.1383753 7,26.1383753 7,25.5848742 L7,25.4151258 C7,24.8616247 6,24.8616247 6,25.4151258" id="Fill-59" fill="#2E2B28"></path>
            <path d="M9.49972633,26 C10.1667579,26 10.1667579,25 9.49972633,25 C8.83342456,25 8.83342456,26 9.49972633,26" id="Fill-61" fill="#2E2B28"></path>
            <path d="M11.5,25 C12.1666667,25 12.1666667,24 11.5,24 C10.8333333,24 10.8333333,25 11.5,25" id="Fill-63" fill="#2E2B28"></path>
        </g>
    </g>
</svg>