<?xml version="1.0" encoding="UTF-8"?>
<svg width="40px" height="44px" viewBox="0 0 40 44" version="1.1" xmlns="http://www.w3.org/2000/svg" xmlns:xlink="http://www.w3.org/1999/xlink">
    <!-- Generator: Sketch 48.2 (47327) - http://www.bohemiancoding.com/sketch -->
    <title>Page 1</title>
    <desc>Created with Sketch.</desc>
    <defs>
        <polygon id="path-1" points="0 0.51857755 34.5637309 0.51857755 34.5637309 30.9620535 0 30.9620535"></polygon>
    </defs>
    <g id="Mobile" stroke="none" stroke-width="1" fill="none" fill-rule="evenodd" transform="translate(-237.000000, -407.000000)">
        <g id="Group-2" transform="translate(20.000000, 391.000000)">
            <g id="Group" transform="translate(18.000000, 9.000000)">
                <g id="Page-1" transform="translate(199.000000, 7.000000)">
                    <path d="M6.9711441,13.1789516 C6.36983681,13.7896813 5.77030328,14.3978943 5.1681091,15.0077851 C4.63509187,15.5488849 5.49270862,16.3643098 6.02927338,15.8206932 C6.62969379,15.2108024 7.2301142,14.6017505 7.83142149,13.9926986 C8.36532561,13.4507599 7.50770887,12.636174 6.9711441,13.1789516" id="Fill-1" fill="#2E2B28"></path>
                    <path d="M5.00144845,18.4950594 C5.06013658,19.3124764 5.42903337,20.0737006 5.91530642,20.7592519 C6.31103208,21.3181823 7.30537663,20.8027076 6.90797417,20.2407803 C6.53572377,19.7155656 6.19617103,19.1259165 6.15173574,18.4950594 C6.10394683,17.8372298 4.95365955,17.8327344 5.00144845,18.4950594" id="Fill-3" fill="#2E2B28"></path>
                    <path d="M9.23939779,17.1154907 C9.52232496,17.3236123 9.62992759,17.8413365 9.72172843,18.1836192 C9.8436279,18.6385629 9.92113189,19.1072666 9.99487355,19.5733904 C10.1137632,20.3207364 11.1077706,20.0033938 10.9903859,19.2594879 C10.8203286,18.1879193 10.6307072,16.7379476 9.76010419,16.0963825 C9.19951709,15.6835792 8.68182055,16.7052674 9.23939779,17.1154907" id="Fill-5" fill="#2E2B28"></path>
                    <path d="M9.11155835,22.3347208 C8.87696025,22.9973404 8.54606705,23.6067464 8.12017132,24.1337805 C7.73628352,24.6097878 8.36123218,25.3197895 8.74705882,24.8408664 C9.28152888,24.1782467 9.67187944,23.4310684 9.96658119,22.6000602 C10.1785596,22.0015886 9.3209517,21.7428097 9.11155835,22.3347208" id="Fill-7" fill="#2E2B28"></path>
                    <path d="M5.10673168,25.8922038 C5.61051366,26.628531 6.2603194,27.2316265 6.92016428,27.8311692 C7.50882257,28.3658724 8.39591693,27.506972 7.80543334,26.9696042 C7.22681418,26.4446713 6.6290294,25.922403 6.18822017,25.2784498 C5.74284769,24.6273909 4.6577086,25.2367038 5.10673168,25.8922038" id="Fill-9" fill="#2E2B28"></path>
                    <path d="M11.7952216,26.5452898 C11.8057568,27.4713777 11.4607309,28.3053503 11.0595177,29.1368556 C10.7425856,29.7939997 11.7794189,30.3680755 12.0989848,29.7068191 C12.5879909,28.6919057 13.0120303,27.6761698 12.9997393,26.5452898 C12.99096,25.8182367 11.7873203,25.8182367 11.7952216,26.5452898" id="Fill-11" fill="#2E2B28"></path>
                    <path d="M14.7407238,29.9868748 C15.6914771,29.7885332 16.6224229,29.4915046 17.5731762,29.293163 C18.3206887,29.1354573 18.003771,27.8573635 17.258842,28.0131342 C16.30895,28.2114757 15.3771429,28.5085044 14.4272508,28.7068459 C13.6788771,28.8635842 13.9966561,30.1426455 14.7407238,29.9868748" id="Fill-13" fill="#2E2B28"></path>
                    <path d="M15.1596649,31.8797763 C15.8275037,32.5131744 16.410513,33.2301721 17.088377,33.8552856 C17.5842434,34.3116938 18.3338268,33.5833989 17.8364181,33.1239781 C17.1585541,32.4988646 16.5755447,31.7833732 15.907706,31.1484688 C15.418009,30.6845291 14.669968,31.4143303 15.1596649,31.8797763" id="Fill-15" fill="#2E2B28"></path>
                    <path d="M20.1738766,28.2448912 C19.8301524,28.9333235 19.4379707,29.5897356 19.0690486,30.2614301 C18.7673208,30.8094105 19.5342394,31.3100885 19.834029,30.7642913 C20.202305,30.0933245 20.5951327,29.4369124 20.9395031,28.7477524 C21.2192636,28.1874006 20.4536372,27.6838116 20.1738766,28.2448912" id="Fill-17" fill="#2E2B28"></path>
                    <path d="M21.4250573,33.0233423 C22.397488,33.2783979 23.3229372,33.6458893 24.2687745,33.9620677 C24.9992057,34.2058043 25.3130074,33.2044469 24.5914407,32.9644833 C23.6456033,32.6490595 22.7201542,32.2808135 21.7486099,32.0257578 C20.9969041,31.828052 20.6786701,32.8271456 21.4250573,33.0233423" id="Fill-19" fill="#2E2B28"></path>
                    <path d="M26.0003303,28.4922531 C26.0214479,29.1638365 26.0432467,29.8361635 26.0650455,30.5077469 C26.0861631,31.1629683 27.0201058,31.1651995 26.9996695,30.5077469 C26.9785519,29.8361635 26.9560718,29.1638365 26.9349542,28.4922531 C26.9145179,27.8370317 25.9798939,27.8348005 26.0003303,28.4922531" id="Fill-21" fill="#2E2B28"></path>
                    <path d="M29.1524404,29.7836428 C29.494749,30.0846926 29.8499209,30.3877673 30.0843201,30.7752169 C30.398758,31.2915914 31.2455965,30.8258419 30.9311586,30.3074423 C30.6545961,29.8518178 30.2486854,29.4846181 29.8456331,29.1282184 C29.3839811,28.7218688 28.6900738,29.3752682 29.1524404,29.7836428" id="Fill-23" fill="#2E2B28"></path>
                    <path d="M11.1697452,1.71546679 C8.00204736,2.99980526 5.14940369,6.01835032 6.23493677,9.67867614 C6.72389455,11.3235307 8.40834243,11.6545217 9.90095041,11.5729394 C11.8287074,11.4672709 13.2690663,12.884472 13.9935349,14.5091252 C14.2641383,15.1159421 14.8700716,15.7569459 15.5688056,15.8183269 C16.4656181,15.8960243 17.0083846,15.7157663 17.7882216,15.2822146 C20.0980988,13.9994301 22.0476912,15.6046589 23.2837328,17.597598 C24.5868404,19.6977594 22.0929217,22.4964208 23.6900279,24.3409577 C24.2897225,25.0355727 24.851985,25.3852111 25.751137,25.5794547 C27.1252098,25.8754819 29.377379,23.6766447 30.3248809,26.0767182 C30.8333346,27.3649416 32.1925905,29.3796359 33.5931777,29.8411586 C36.8700527,30.9188219 39.0613946,26.2484295 39.647832,23.8048454 C40.7513013,19.2074887 39.1300202,14.3552843 36.615046,10.5224702 C33.5721221,5.88548772 28.3768481,2.0806447 23.0552406,0.518926402 C19.0141253,-0.667513317 15.0088826,0.372078264 11.1697452,1.71546679 C10.2721528,2.02936439 10.658952,3.45977403 11.5643427,3.14199156 C14.3935912,2.15212633 17.1479755,1.34329611 20.183101,1.5095686 C25.468836,1.79782606 30.3935066,5.59645329 33.8091925,9.31893705 C36.9199622,12.7080988 38.686293,17.2565062 38.442204,21.8460933 C38.3509631,23.5391202 37.8050772,25.1956294 36.9199622,26.6338088 C34.7044454,30.2327536 32.7384763,27.0277347 31.4899573,25.0184793 C30.8146185,23.9338232 29.9045488,23.5896236 28.6536903,23.4621998 C27.9502773,23.3907182 27.0628228,23.8522409 26.4085396,24.06047 C23.7882873,24.8941634 25.0087322,21.0947592 25.1631399,20.344979 C25.8415981,17.0451692 23.0139092,14.2946803 20.1581462,13.2954914 C18.9579771,12.8759253 15.8456477,14.7080306 15.2763667,13.761676 C14.5643755,12.5791211 13.8165119,11.5022348 12.6529951,10.7011743 C11.1557081,9.67246034 8.13617932,10.862008 7.54818224,8.88305448 C6.77458396,6.27863671 9.49933436,3.97879285 11.5643427,3.14199156 C12.4393198,2.78846826 12.0571997,1.3557277 11.1697452,1.71546679" id="Fill-25" fill="#2E2B28"></path>
                    <g id="Group-29" transform="translate(0.000000, 7.000000)">
                        <mask id="mask-2" fill="white">
                            <use xlink:href="#path-1"></use>
                        </mask>
                        <g id="Clip-28"></g>
                        <path d="M5.40687778,0.731917949 C1.97998889,4.05845641 -0.111455556,8.39050769 0.00443333333,13.2734051 C0.138211111,18.8677128 3.93221111,23.4263026 8.09487778,26.6113538 C16.2491,32.8510974 29.3453222,33.0299436 34.4739889,22.8500205 C34.9111,21.9844051 33.6324333,21.2181487 33.1953222,22.0861487 C28.6461,31.1143026 17.9026556,30.9100205 10.2742111,26.2830718 C5.68065556,23.4962513 1.91854444,18.8470462 1.4861,13.2734051 C1.14465556,8.86743077 3.42587778,4.74125128 6.45454444,1.80261026 C7.14832222,1.12935385 6.0991,0.0602512821 5.40687778,0.731917949" id="Fill-27" fill="#2E2B28" mask="url(#mask-2)"></path>
                    </g>
                    <path d="M15.3820088,14.145936 C12.244575,16.5249448 12.4000018,20.2729909 14.7196877,23.2103708 C17.2580645,26.4245635 21.6607815,26.9536715 24.751353,24.3144586 C25.4863107,23.6872798 24.4280028,22.627482 23.6992934,23.2499155 C21.3272779,25.2753947 18.3647968,24.7344233 16.2294361,22.6535815 C14.1510913,20.6281022 13.6379486,17.3387746 16.1325873,15.4469564 C16.8909762,14.8727674 16.1505512,13.5638381 15.3820088,14.145936" id="Fill-30" fill="#2E2B28"></path>
                    <path d="M29,38 C29,38 28.9542406,38.1369941 28.8500986,38.3532227 C28.7964497,38.4605964 28.7357002,38.595369 28.652071,38.7360657 C28.5842209,38.8856484 28.4627219,39.0344907 28.3057199,39.1929596 C28.1550296,39.3529094 27.9790927,39.5261885 27.781854,39.7039106 C27.5814596,39.8623795 27.3581854,39.99419 27.122288,40.1400702 C26.8895464,40.291134 26.635503,40.4236851 26.3609467,40.5155081 C26.0903353,40.6176984 25.8134122,40.7243316 25.5293886,40.802085 C25.2390533,40.8568827 24.9495069,40.9161234 24.6615385,40.9561108 C24.3783037,41.0153515 24.0856016,40.9960983 23.8094675,40.9998009 C23.5325444,40.9894337 23.2690335,41.0020224 23.017357,40.9494463 C22.7648915,40.9035347 22.5313609,40.8531801 22.3191321,40.7998635 C22.2142012,40.7724647 22.113215,40.7450659 22.0169625,40.7198886 C21.9238659,40.6784201 21.8362919,40.6384326 21.7534517,40.6028882 C21.5885602,40.5325398 21.452071,40.457008 21.3392505,40.3985078 C21.1159763,40.2800264 21,40.1963489 21,40.1963489 C21,40.1963489 21.1530572,40.1563614 21.400789,40.1156334 C21.5238659,40.0956397 21.6721893,40.0682409 21.8362919,40.0526902 C21.9988166,40.0408421 22.181854,40.0075192 22.3798817,39.9608671 C22.5779093,39.9231012 22.7869822,39.8875567 23.0047337,39.8579364 C23.2224852,39.8364616 23.4497041,39.7564867 23.6840237,39.7179802 C23.9159763,39.6668851 24.1589744,39.6454104 24.3964497,39.5713595 C24.633925,39.5061948 24.878501,39.4558402 25.1230769,39.403264 C25.3637081,39.3432828 25.5964497,39.2573838 25.834714,39.1996241 C25.9538462,39.1692633 26.0721893,39.1396429 26.1889546,39.1085416 C26.3001972,39.0663326 26.4098619,39.0248641 26.5203156,38.9885792 C26.7451677,38.9167498 26.9621302,38.8478825 27.1680473,38.7812367 C27.3510848,38.7020023 27.5364892,38.6309134 27.7163708,38.5657487 C27.8978304,38.505027 28.0808679,38.4472673 28.2268245,38.3547037 C28.3751479,38.2695452 28.5155819,38.208083 28.6284024,38.1540258 C28.8564103,38.0481331 29,38 29,38" id="Fill-32" fill="#2E2B28"></path>
                    <path d="M26.9963984,42.0015774 C26.9963984,42.0015774 27.0039708,42.0878497 26.9971556,42.2153149 C26.988826,42.3458891 26.9767101,42.5161019 26.9176454,42.7057453 C26.8494938,42.8922798 26.7555961,43.1130124 26.5988474,43.2948835 C26.5208517,43.3881508 26.4436132,43.4868587 26.3421431,43.5669131 C26.2399157,43.6485219 26.1270869,43.7200268 26.0142582,43.792309 C25.8976433,43.8560416 25.7613401,43.901898 25.6326093,43.9399821 C25.5061502,43.9889474 25.3675753,43.9974969 25.2350583,43.9998286 C25.1010269,43.9990514 24.9760823,44.0068237 24.8571956,43.9687395 C24.7383089,43.936096 24.6300236,43.8964574 24.5338541,43.8537099 C24.3430297,43.7666605 24.2105127,43.6182101 24.1249446,43.5272745 C24.0386192,43.4301211 24,43.3578389 24,43.3578389 C24,43.3578389 24.0689088,43.3003241 24.170379,43.2272648 C24.2710919,43.1472104 24.4036089,43.0811461 24.5353686,42.9707798 C24.6004913,42.92026 24.6678856,42.8712947 24.7337655,42.8293244 C24.8004026,42.7959037 24.861739,42.7243988 24.9268617,42.6878691 C24.9912271,42.646676 25.0555925,42.6085919 25.1207151,42.5604038 C25.1850805,42.5106613 25.2577755,42.4912306 25.3266843,42.444597 C25.3993794,42.4034039 25.4720744,42.3629881 25.5530991,42.3350079 C25.6310948,42.3000327 25.7121195,42.2572852 25.7976876,42.2285278 C25.97261,42.1741219 26.1392028,42.1103893 26.3163969,42.0816319 C26.4935911,42.0474339 26.6632128,42.0109042 26.7874002,42.0054636 C26.9123448,41.9961369 26.9963984,42.0015774 26.9963984,42.0015774" id="Fill-34" fill="#2E2B28"></path>
                    <path d="M21.3189702,5.41160917 C21.2509652,5.48659414 21.1610734,5.57514023 21.0672733,5.65491148 C20.8788914,5.80408372 20.6803479,5.92453831 20.5021277,5.89023667 C20.4411577,5.88943896 20.3942576,5.85673275 20.3285975,5.79211803 C20.2926408,5.75143469 20.2566841,5.71234678 20.2238541,5.67485429 C20.1691374,5.64454122 20.1152023,5.60784644 20.0651756,5.56796082 C19.9643405,5.48659414 19.8736671,5.39565492 19.808007,5.3182768 C19.7439103,5.2416964 19.7024819,5.18186797 19.7024819,5.18186797 C19.7024819,5.18186797 19.7157702,5.11007384 19.7446919,5.01514605 C19.772832,4.91942055 19.8181687,4.8013591 19.8783571,4.68808392 C19.9096238,4.63304176 19.9432355,4.57959502 19.9807555,4.53013685 C20.0370356,4.48706037 20.1003506,4.44797246 20.1714824,4.41925481 C20.3121825,4.35783095 20.4841494,4.32831558 20.6428279,4.33389957 C20.8976515,4.3737852 21.1376234,4.52535057 21.2665985,4.77264145 C21.3314769,4.89229833 21.3752503,5.01434834 21.4002636,5.11246698 C21.425277,5.20899019 21.4330937,5.2799866 21.4330937,5.2799866 C21.4330937,5.2799866 21.3861936,5.33821962 21.3189702,5.41160917 M16.7430889,4.94654278 C16.568777,5.037482 16.3209884,5.12363495 16.0372431,5.2416964 C15.7503712,5.34779217 15.4228525,5.44271995 15.0843905,5.54562487 C14.7396751,5.62539612 14.3980865,5.74425528 14.0416461,5.81046542 C13.8728059,5.8599236 13.7031841,5.91017948 13.5312172,5.94448112 C13.3537787,5.97319877 13.1997902,6.03701577 13.0364217,6.07530597 C12.8832149,6.12396643 12.694833,6.1407184 12.5705479,6.19256971 C12.4306294,6.23564619 12.2899293,6.27074554 12.1500108,6.30265404 C12.010874,6.32339456 11.8693922,6.37923444 11.7482337,6.42709719 C11.6294203,6.47735307 11.5129518,6.50846386 11.4214967,6.53718151 C11.2354599,6.59142596 11.1166464,6.60897564 11.1166464,6.60897564 C11.1166464,6.60897564 11.1463498,6.49091419 11.2182632,6.3066426 C11.2550016,6.21650109 11.2972116,6.1024282 11.3574,5.98675988 C11.4128984,5.86470987 11.4730868,5.73069417 11.5950269,5.60226246 C11.7068054,5.46984218 11.8373438,5.32864707 11.9866423,5.1842611 C12.1367225,5.0247186 12.3032176,4.93697023 12.4822195,4.81571793 C12.6612213,4.7056336 12.8488215,4.57879731 13.0528367,4.51178946 C13.2552886,4.43042279 13.4663388,4.36261722 13.6766074,4.29401395 C13.8907843,4.25333061 14.1049612,4.2142427 14.3160114,4.18951361 C14.5278433,4.15202112 14.7357668,4.16239138 14.9358737,4.16717766 C15.3384324,4.17196393 15.7065978,4.24854433 16.0169198,4.33629271 C16.3280234,4.4184571 16.5773754,4.54768652 16.7509055,4.6354349 C16.9244357,4.72717184 17.0197991,4.79657283 17.0197991,4.79657283 C17.0197991,4.79657283 16.9174007,4.86278296 16.7430889,4.94654278 M19.0865279,1.12549988 C4.94538175,-0.164401246 5.70047253,8.88484942 6.21793639,10.1508192 C6.73540026,11.4175866 9.28050953,11.4407203 11.1697998,11.6130262 C13.0598717,11.7869275 14.0338294,14.4760164 15.1867889,15.4364622 C16.3389668,16.3961104 18.4142939,13.3991045 21.9536842,15.9246623 C25.4954195,18.4518155 22.1483194,22.7578676 23.6616276,24.499274 C25.1733725,26.2398827 27.7622552,25.0816041 29.5741604,25.3392653 C31.3868472,25.5977241 30.7560416,30.0226354 33.1018256,29.9061694 C35.4468281,29.7912988 35.9885236,31.5183463 38.5265979,23.9703906 C41.0646721,16.4232326 33.2276741,2.41699642 19.0865279,1.12549988" id="Fill-36" fill="#2E2B28"></path>
                </g>
            </g>
        </g>
    </g>
</svg>