<?xml version="1.0" encoding="UTF-8"?>
<svg width="60px" height="48px" viewBox="0 0 60 48" version="1.1" xmlns="http://www.w3.org/2000/svg" xmlns:xlink="http://www.w3.org/1999/xlink">
    <!-- Generator: Sketch 48.2 (47327) - http://www.bohemiancoding.com/sketch -->
    <title>Group 6</title>
    <desc>Created with Sketch.</desc>
    <defs>
        <polygon id="path-1" points="0 0.0251718558 59.8538222 0.0251718558 59.8538222 47.9929524 0 47.9929524"></polygon>
    </defs>
    <g id="Mobile" stroke="none" stroke-width="1" fill="none" fill-rule="evenodd" transform="translate(-130.000000, -40.000000)">
        <g id="ZELTLAGER" transform="translate(-1.000000, -25.000000)">
            <g id="Group-6" transform="translate(131.000000, 65.000000)">
                <mask id="mask-2" fill="white">
                    <use xlink:href="#path-1"></use>
                </mask>
                <g id="Clip-5"></g>
                <path d="M56.82085,43.606763 C55.49085,41.0278721 54.64685,38.2442763 53.40585,35.6296355 C52.17435,33.0345836 50.80785,30.494381 49.47335,27.9429147 C48.04785,25.214168 46.66585,22.4687706 45.44685,19.656281 C44.55285,17.590132 43.92185,15.4965584 43.28385,13.3878033 C44.21735,14.7928238 45.16935,16.1836423 45.95885,17.6983612 C47.30935,20.2860671 48.58685,22.8967901 49.97035,25.4712735 C53.02185,31.1506122 55.62585,37.0287793 58.37685,42.8334876 C57.93535,43.0616993 57.32385,43.4045067 56.82085,43.606763 M42.06035,39.7971937 C42.06885,39.5807353 42.07885,39.3652564 42.08835,39.1492877 C42.23085,36.1281753 42.40935,33.1109807 42.56135,30.0913375 C42.71435,27.0374135 42.81585,23.9795717 42.83985,20.9138943 C42.85235,19.3629358 42.88435,17.7772069 42.83385,16.1929471 C44.06685,20.0456122 46.14885,23.8458768 47.92035,27.3121491 C49.38835,30.1834057 50.91435,33.0282172 52.30535,35.9327751 C53.18085,37.7609179 53.93685,39.6424406 54.69935,41.5190661 C50.63485,40.2036653 46.23385,39.7731972 42.06035,39.7971937 M41.78785,44.316864 C41.82835,43.96818 41.86585,43.622924 41.88885,43.2859933 C41.94285,42.4818651 41.98035,41.6762678 42.01435,40.8706705 C46.15535,41.1742999 50.20635,41.4441382 54.25335,42.6160497 C50.09685,43.0989184 45.80085,43.2957878 41.78785,44.316864 M40.76785,39.1492877 C40.63085,41.4779293 40.16235,43.9809128 40.19635,46.3550987 C37.26935,45.930997 34.31635,46.1454965 31.43435,46.4716532 C33.66185,41.0430536 35.19235,35.2163077 37.02235,29.6393215 C38.57135,24.9227817 40.26335,20.1744099 41.56985,15.3403362 C41.59885,17.1993316 41.68135,19.0651831 41.65485,20.9138943 C41.61335,23.9795717 41.46235,27.0374135 41.30085,30.0913375 C41.14135,33.1124499 40.94285,36.1291548 40.76785,39.1492877 M30.28585,46.4403109 C25.58485,45.2037557 20.54585,45.1205025 15.77335,44.439785 C10.83135,43.7350709 5.96485,42.7159536 1.15185,41.2580428 C2.38185,39.4499788 3.23135,37.1482721 4.14685,35.2295303 C5.56385,32.2549417 7.02135,29.3014113 8.43035,26.3233947 C9.64685,23.7552777 10.89635,21.29539 12.44535,18.912389 C14.00535,16.5122476 15.67735,14.1238597 16.72335,11.4362499 C18.63085,11.9925773 20.63435,11.7800367 22.56035,11.6610336 C24.91435,11.5150956 27.24785,11.3696473 29.61935,11.3583836 C33.51885,11.3402638 37.76385,11.7149033 41.63035,11.1585759 C39.68385,16.8859077 38.04335,22.7459549 36.14635,28.4938551 C34.18035,34.4503781 31.96535,40.3804559 30.28585,46.4403109 M59.80135,42.8325081 C58.58535,39.7276527 56.99035,36.7525745 55.59185,33.7153011 C54.20135,30.6956579 52.71235,27.7142132 51.14785,24.7675389 C49.77885,22.1881583 48.46685,19.5916373 47.14185,16.9916882 C46.01585,14.7830293 44.70185,12.2114843 42.66335,10.6193889 C42.65385,10.5547452 42.62735,10.4994063 42.59735,10.4479852 C42.56835,9.89557561 42.48285,9.33728931 42.44135,8.78781806 C42.37285,7.87741962 42.32835,6.96751091 42.20635,6.05858164 C42.22585,6.05368439 42.24585,6.05025632 42.26485,6.04291045 C42.43035,6.03899265 42.59035,5.9630853 42.65085,5.81225005 C42.89385,5.20646045 42.74885,4.53553745 42.69485,3.87783702 C42.63335,3.14520868 42.59535,2.41600843 42.44335,1.68778762 C42.40035,1.48357237 42.22435,1.36995621 42.03085,1.33567547 C41.96635,1.28523382 41.88385,1.2534017 41.79335,1.23430244 C41.79535,1.03155636 41.75685,0.817546615 41.74035,0.635858706 C41.71285,0.302356104 41.41685,0.0251718558 41.07385,0.0251718558 C40.73035,0.0251718558 40.47535,0.302356104 40.49435,0.635858706 C40.50235,0.782776152 40.49985,0.950751766 40.51385,1.11627875 C37.76885,0.901289559 34.78435,0.786204226 32.23235,1.47279842 C31.76385,1.38660686 31.34885,1.97378691 31.79235,2.39299136 C32.20985,2.78673012 32.62935,3.1829175 33.00735,3.61387534 C32.63835,4.05364823 32.29835,4.51888681 31.93935,4.96845419 C31.67785,5.29608009 31.85785,5.70646949 32.14485,5.90235942 C32.22385,6.02381118 32.35385,6.11685889 32.54585,6.12518422 C35.37935,6.2353723 38.15235,5.92635594 40.98285,6.01793448 C40.96335,7.17172616 40.90335,8.58115419 41.11685,9.85052092 C37.30385,10.418112 33.12535,10.0224143 29.25735,10.0571848 C27.17385,10.0762841 25.11185,10.1967564 23.04835,10.3706087 C20.86285,10.5547452 18.62785,10.4827557 16.45835,10.7227208 C16.16335,10.553276 15.78185,10.5777623 15.58335,10.9636654 C13.00185,16.0093003 9.60635,20.4868543 7.19735,25.641208 C5.82435,28.5761289 4.39635,31.4826457 3.00485,34.407772 C1.98235,36.5542359 0.04135,39.070442 -0.00015,41.5425729 C-0.00315,41.7418909 0.12435,41.900072 0.28985,41.9940992 C0.36035,42.0607018 0.44685,42.1175099 0.55235,42.1561981 C5.19485,43.87905 10.06735,44.8041402 14.89385,45.5641932 C19.83535,46.3418762 25.07885,46.4094582 29.92685,47.7547323 C30.02435,47.7816671 30.11335,47.7870541 30.19685,47.7821569 C30.32085,47.9285846 30.51285,48.0177145 30.76885,47.9868618 C34.02035,47.5931231 37.46335,47.1993843 40.78085,47.8076226 C41.22285,47.8889169 41.64735,47.6210374 41.61185,47.1513913 C41.58085,46.7312074 41.59385,46.2992701 41.62635,45.8648842 C46.25235,45.0137425 50.91535,44.3775899 55.56885,43.6351671 C55.69085,43.9270431 55.81435,44.2189191 55.93935,44.5093259 C56.01985,44.6939521 56.18435,44.9025749 56.40485,44.9348968 C57.39035,45.0783861 58.55935,44.2042273 59.44285,43.8173447 C59.66335,43.7213587 59.75385,43.55877 59.75835,43.384428 C59.85735,43.2497537 59.89185,43.0631685 59.80135,42.8325081" id="Fill-4" stroke="#000000" stroke-width="0.2" fill="#000000" mask="url(#mask-2)"></path>
            </g>
        </g>
    </g>
</svg>