<?xml version="1.0" encoding="UTF-8"?>
<svg width="63px" height="48px" viewBox="0 0 63 48" version="1.1" xmlns="http://www.w3.org/2000/svg" xmlns:xlink="http://www.w3.org/1999/xlink">
    <!-- Generator: Sketch 48.2 (47327) - http://www.bohemiancoding.com/sketch -->
    <title>Page 1</title>
    <desc>Created with Sketch.</desc>
    <defs>
        <polygon id="path-1" points="0.280548973 0.147933333 4.79088111 0.147933333 4.79088111 6.58572637 0.280548973 6.58572637"></polygon>
        <polygon id="path-3" points="0.259914005 0.264795619 11.7819496 0.264795619 11.7819496 11 0.259914005 11"></polygon>
    </defs>
    <g id="Mobile" stroke="none" stroke-width="1" fill="none" fill-rule="evenodd" transform="translate(-214.000000, -684.000000)">
        <g id="Page-1" transform="translate(214.000000, 684.000000)">
            <path d="M21.2834592,9 C21.2834592,9 24.9564173,9.15602145 25.5857927,10.607021 C26.2157687,12.0580205 24.4717742,12.3988298 24.4717742,12.3988298 C24.4717742,12.3988298 27.0547358,12.5509508 27.0547358,13.6250609 C27.0547358,14.6991711 26.1106726,14.443686 26.1106726,14.443686 C26.1106726,14.443686 28,15.0117016 28,16.0053632 L28,17 C28,17 21.9212423,13.9726962 21.2834592,11.8644564 C20.645676,9.75621648 21.2834592,9 21.2834592,9" id="Fill-1" fill="#2E2B28"></path>
            <path d="M18,7.27306288 C18,7.27306288 16.1109534,4.58206928 11.861519,7.02489684 C7.61313675,9.46833116 6.16123791,11.6265869 7.45847796,11.5932149 C8.75677011,11.5592362 11.2928586,9.58543641 11.2928586,9.58543641 C11.2928586,9.58543641 7.51844769,14.0803362 10.6189882,12.7557727 C13.7195287,11.431816 15.0283418,10.1642882 15.0283418,10.1642882 C15.0283418,10.1642882 12.0856164,12.5276299 14.464942,11.9384631 C16.8447935,11.3505098 16.7148591,8.81666778 16.7148591,8.81666778 L18,7.27306288 Z" id="Fill-3" fill="#2E2B28"></path>
            <path d="M12.2062388,4.80840898 C12.948243,5.23920229 13.6675464,5.707236 14.4843296,5.97711398 C15.0015515,6.14814398 15.2214375,5.31000503 14.7077766,5.1403543 C13.9626566,4.89392398 13.3070045,4.45255623 12.6295418,4.05946309 C12.1572764,3.78498752 11.7339735,4.53439317 12.2062388,4.80840898" id="Fill-5" fill="#2E2B28"></path>
            <path d="M12.1873731,2.96773934 C12.5957778,3.28979911 13.009153,3.60092306 13.4179719,3.92298282 C13.851643,4.26582063 14.2447222,3.3729113 13.8127079,3.03226066 C13.4038889,2.7096541 12.9905138,2.39907694 12.5821091,2.07701718 C12.1480238,1.73417937 11.7553588,2.6270887 12.1873731,2.96773934" id="Fill-7" fill="#2E2B28"></path>
            <path d="M6.25613056,9.15597602 C4.88342033,10.6686692 4.23381575,12.4073736 2.08106242,13.0257157 C0.768912941,13.4032512 0.172104913,14.2761747 0.0364902524,15.5618364 C-0.221798738,18.0076547 0.903492375,20.6723416 3.01845994,21.9758597 C7.13814346,24.5170822 13.8039664,21.8998424 16.8578843,18.8030303 C17.3014788,18.3535589 16.6047714,17.6658319 16.1611769,18.1158135 C13.3500196,20.9656969 8.30950215,22.7640927 4.3689128,21.5253679 C1.75651894,20.7044831 1.04014226,17.9734724 1.02254341,15.5618364 C1.00960308,13.8960882 3.47706524,13.8654772 4.39686391,13.0201036 C5.41759716,12.0813665 6.02941597,10.8615185 6.95335555,9.8431928 C7.37572792,9.37790571 6.68057339,8.68813802 6.25613056,9.15597602" id="Fill-9" fill="#2E2B28"></path>
            <path d="M7.01080008,9.48740993 C7.01186129,7.86671257 6.98267809,6.17087986 7.91547924,4.79451153 C7.65123864,4.83068781 7.38646744,4.86630753 7.12169624,4.90192725 C8.3505742,6.16921018 9.7190009,7.18047636 11.5119105,7.09977543 C12.1613693,7.0708344 12.1640223,6.01003455 11.5119105,6.04008869 C9.9827109,6.10854534 8.87905539,5.22695722 7.8364193,4.15279997 C7.58862741,3.89678321 7.23046998,3.98304973 7.0431669,4.25910258 C6.00848987,5.78518505 6.00159202,7.6880574 6.00000021,9.48740993 C5.99946961,10.1708634 7.01026948,10.1708634 7.01080008,9.48740993" id="Fill-11" fill="#2E2B28"></path>
            <path d="M17.4723933,9.00659618 C18.3061817,7.99077524 19.2578274,7.10655044 20.2451404,6.23599139 C20.5692478,5.95052901 20.1174617,5.99911835 20.4436368,6.80387933 C20.73156,7.51753529 20.9005921,8.1006074 20.933158,8.88157985 C20.9936373,10.31699 20.782218,11.4016458 21.7948599,12.5045227 C24.3499846,15.284238 27.3486247,17.633229 28.6486729,21.2951445 C29.4245666,23.4811588 28.8063329,25.9359328 28.1922345,28.0910726 C27.6380987,30.0351524 26.5520544,31.617849 24.6167142,32.4160302 C23.2613557,32.9748076 21.348243,33.0714802 20.4787872,34.4248958 C19.7225365,35.601669 19.9670386,36.9424311 20.172255,38.2472574 C20.3304318,38.0437895 20.4886087,37.8403217 20.6467855,37.6368538 C19.6093315,37.7568087 18.5713606,37.8539874 17.5302881,37.9354758 C17.2289251,37.9582521 16.927562,37.9795099 16.625682,37.9992493 C15.8373824,38.0523939 16.430804,38.0640351 16.3661893,37.8155209 C15.8192902,35.710995 15.3530304,32.367947 18.0472059,31.5525571 C18.6514828,31.3693348 18.3935408,30.4385452 17.7856455,30.6222737 C14.2039221,31.7074356 14.8350788,35.8334806 15.5660005,38.6450827 C15.6171754,38.8434891 15.8265271,39.0115273 16.0400141,38.9993799 C17.5799122,38.9118179 19.1151581,38.7776911 20.6467855,38.6010486 C20.9884682,38.5615697 21.1740417,38.3252028 21.121316,37.990645 C20.7387969,35.5551042 21.2200473,34.418316 23.7736212,33.6940311 C25.0431713,33.3346725 26.1638491,32.8427054 27.1403068,31.9559499 C29.4369726,29.869645 30.2557704,25.3857598 29.9321798,22.5007676 C29.5734389,19.3009569 27.1651189,16.5490793 24.9961318,14.3073897 C24.0723997,13.3528116 22.9780848,12.4933876 22.1613546,11.4456799 C21.605668,10.7325301 21.9313262,9.20399038 21.8956589,8.35367689 C21.8517209,7.30546306 21.2614008,6.34886039 20.9858836,5.35379115 C20.9285057,5.1467803 20.7294924,5 20.511353,5 C19.2635135,5 17.4951377,7.44971267 16.7761051,8.32482697 C16.3827306,8.80464672 17.0748836,9.49147732 17.4723933,9.00659618" id="Fill-13" fill="#2E2B28"></path>
            <path d="M12.0052787,24.5558562 C11.9384129,26.7656826 12.5158494,28.7603877 13.2234747,30.7067511 C13.4652541,31.3714514 14.1923635,30.7883279 13.9519126,30.1260447 C13.3080532,28.3543163 12.7877405,26.5662725 12.8488495,24.5558562 C12.8714333,23.8132047 12.0278624,23.8162261 12.0052787,24.5558562" id="Fill-15" fill="#2E2B28"></path>
            <path d="M13.5817988,28.1632146 C11.262153,30.8238601 11.8595988,35.2174335 13.0539783,38.3135385 C13.1430576,38.5446326 13.2833319,38.6883008 13.5239484,38.7022221 C14.2038181,38.7417587 14.8642337,38.896564 15.5369361,38.9945702 C16.1584435,39.0847804 16.1502523,38.0223041 15.5369361,37.9337644 C14.9886376,37.8541344 14.4464824,37.7344109 13.8966481,37.6631337 C13.5925497,37.6235971 13.2899872,35.6573477 13.2285532,35.3555332 C12.7959554,33.2155455 12.8087542,30.5910954 14.2708836,28.9132961 C14.7034814,28.4176966 14.0154205,27.6659445 13.5817988,28.1632146" id="Fill-17" fill="#2E2B28"></path>
            <path d="M7.46810693,22.245794 C6.51774889,24.199431 6.94592677,26.79497 9.38604856,26.9793137 C10.0937725,27.0321284 11.4969163,27.0483791 11.8005781,26.1911555 C12.1229419,25.2826407 11.9590531,24.1481398 11.9531472,23.199506 C11.9506864,22.8648435 11.65736,22.6774528 11.3600963,22.7333145 C11.1779976,22.7673394 10.9973754,22.8054269 10.8167533,22.8445301 C10.6897764,22.8714453 10.5627995,22.8978527 10.4353305,22.9217209 C10.1735021,22.9064859 10.1705492,22.976567 10.4269638,23.1334876 C10.0873744,22.6226067 9.27432858,23.1050489 9.61785521,23.6210082 C10.0219173,24.2283775 11.0559423,23.7703113 11.6091284,23.6656976 C11.4112807,23.5108082 11.213433,23.355411 11.0155853,23.199506 C11.0200147,23.8327749 11.0382246,24.4645203 11.0155853,25.0972813 C11.0106637,25.2445531 11.0352717,25.7610202 10.9137085,25.8422736 C10.6479429,26.0210311 10.2094297,26.0047805 9.90773656,26.0189998 C9.17589688,26.0525169 8.49721033,25.9570441 8.0980698,25.248108 C7.68170371,24.5087018 7.93221238,23.4427585 8.27721548,22.7338224 C8.54790265,22.1782521 7.73928626,21.6881924 7.46810693,22.245794" id="Fill-19" fill="#2E2B28"></path>
            <path d="M19.8840816,22.0378309 C19.088388,22.1325873 18.2956233,22.2096774 17.4950481,22.2252024 C17.240719,22.2300206 17.0313002,22.4537958 17.0303239,22.7348531 C17.0259305,23.7723563 16.8223697,25.2782885 17.5321479,26.125208 C18.2614524,26.9946122 19.4706138,27.0261977 20.4767025,26.9914001 C22.991192,26.9041385 24.4566351,25.1150075 23.8718247,22.3654634 C23.7366056,21.725188 22.8398638,21.9966091 22.975571,22.6368846 C23.4549398,24.8939091 22.2081904,25.9116044 20.2946205,25.9779875 C19.6195013,26.0015428 18.5948626,26.0336636 18.1667502,25.3559139 C17.7562113,24.7070728 17.9568433,23.4725618 17.9602604,22.7348531 C17.8050269,22.9050936 17.6502816,23.0747987 17.4950481,23.2445038 C18.2956233,23.2295141 19.088388,23.1524241 19.8840816,23.0576676 C20.4737736,22.9875371 20.4796314,21.9677004 19.8840816,22.0378309" id="Fill-21" fill="#2E2B28"></path>
            <path d="M7.10211072,12.4743102 C7.59060763,12.9840562 7.87652335,13.5817166 8.53399139,13.9629419 C8.58693875,13.795392 8.6398861,13.6274479 8.69329387,13.4595037 L6.30559833,13.4595037 C5.89813389,13.4595037 5.89813389,14 6.30559833,14 L6.44049898,14 C6.847503,14 6.847503,13.4595037 6.44049898,13.4595037 L6.30559833,13.4595037 C5.89813389,13.4595037 5.89813389,14 6.30559833,14 L8.69329387,14 C9.02202789,14 9.1044416,13.6424288 8.85259635,13.4961676 C8.26649214,13.1563369 7.9874826,12.5503976 7.54871016,12.0919022 C7.28995873,11.8218512 6.84612177,12.2070189 7.10211072,12.4743102" id="Fill-23" fill="#2E2B28"></path>
            <path d="M13.7526031,13.0000574 C13.2086192,13.0103845 12.6855435,13.141333 12.1837492,13.3705962 C11.9750416,13.4664323 11.9298652,13.7382434 12.1225183,13.888607 C12.4955038,14.1794201 12.7702959,14.597877 13.1145328,14.9271071 C13.3631898,15.164632 13.7268413,14.7660033 13.4766909,14.526826 C13.0973583,14.1641359 12.7930708,13.7213068 12.3808827,13.3995123 C12.3607213,13.5717694 12.3401865,13.7444397 12.3200252,13.91711 C12.7803766,13.7064357 13.2526756,13.5763134 13.7526031,13.5663993 C14.0822789,13.560203 14.0826523,12.993448 13.7526031,13.0000574" id="Fill-25" fill="#2E2B28"></path>
            <path d="M6.74302291,21.6647192 C6.49171649,20.8849543 8.81669938,20.435286 9.54458479,20.556426 C10.0025682,20.6328735 10.1964938,20.1142064 9.73851047,20.0381509 C8.44159931,19.8221376 5.63206788,20.5383922 6.04010875,21.8074212 C6.14902591,22.1449665 6.85140877,22.0014803 6.74302291,21.6647192" id="Fill-27" fill="#2E2B28"></path>
            <path d="M2.5002035,18 C3.16659883,18 3.16659883,17 2.5002035,17 C1.8332655,17 1.8332655,18 2.5002035,18" id="Fill-29" fill="#2E2B28"></path>
            <path d="M6.92986351,19.1008562 C6.9264452,19.1389462 6.92253857,19.1760595 6.91863193,19.2141495 C6.87907724,19.3508829 6.83903422,19.4876162 6.79899121,19.6243495 C6.80338617,19.6155595 6.80778114,19.6077462 6.8121761,19.5979795 C6.74380997,19.6780662 6.67544385,19.7581529 6.60707772,19.8382395 C6.58803287,19.8460529 6.56898802,19.8528895 6.5504315,19.8597262 C7.14912345,19.8401929 7.15058844,17.9806195 6.5504315,18.0001528 C6.2193441,18.0108961 6.00496746,18.4386762 6.00008416,19.1008562 C5.98982925,20.3002029 6.92009692,20.2992262 6.92986351,19.1008562" id="Fill-31" fill="#2E2B28"></path>
            <g id="Group-35" transform="translate(11.000000, 0.000000)">
                <mask id="mask-2" fill="white">
                    <use xlink:href="#path-1"></use>
                </mask>
                <g id="Clip-34"></g>
                <path d="M0.9046,6.41774 C1.8076,4.48807333 2.7101,2.55794 3.6131,0.628273333 C3.4041,0.602606667 3.1956,0.57694 2.9866,0.55174 C3.3651,2.37314 3.7436,4.19407333 4.1221,6.01547333 C4.2066,6.42007333 4.8671,6.24834 4.7836,5.84514 C4.4046,4.02374 4.0261,2.20280667 3.6476,0.381406667 C3.5936,0.122873333 3.1386,0.0528733333 3.0206,0.304873333 C2.1181,2.23500667 1.2156,4.16514 0.3126,6.09480667 C0.1376,6.46907333 0.7281,6.79574 0.9046,6.41774" id="Fill-33" fill="#2E2B28" mask="url(#mask-2)"></path>
            </g>
            <path d="M45.1471094,38.2924193 C42.6005635,37.2079854 40.186425,39.3202261 40.0097016,41.6639864 C39.7989307,44.45926 43.0723663,45.0320456 44.9682243,43.5958222 C44.6812515,43.4409746 44.3948191,43.2861271 44.1083868,43.1312795 C42.6600117,47.3542575 51.4426768,48.4787814 51.9944645,44.6987976 C52.0825559,44.0969469 51.0913918,43.8373643 51.0022195,44.4447274 C50.6249935,47.0300298 44.0792031,46.3625317 45.1006317,43.3848486 C45.2703294,42.8892363 44.6082923,42.6416807 44.2402537,42.9208072 C42.6021848,44.161592 41.2127176,43.3056709 41.0386964,41.6639864 C40.8744031,40.1084953 42.9513081,38.4026667 44.6277481,39.1167695 C45.2260135,39.3713408 45.7496983,38.5489952 45.1471094,38.2924193" id="Fill-36" fill="#2E2B28"></path>
            <path d="M45.1330893,39.309633 C44.3566151,36.6129182 47.1788399,36.7276468 48.3797866,37.7909567 C48.798565,38.1623464 49.4544268,37.7034318 49.1536725,37.1084987 C48.1313148,35.0853712 50.6879854,34.1066293 51.9101557,34.0806083 C53.7063993,34.0421683 54.7442864,36.6395305 55.0377936,38.2658388 C55.165653,38.9772747 56.1160574,38.6756685 55.988198,37.966598 C55.4886663,35.194186 53.6732697,32.6210706 50.9944339,33.0462763 C49.0154601,33.360893 47.174181,35.4449331 48.3026568,37.6774109 C48.5609639,37.4491363 48.8187533,37.2220445 49.0770604,36.9943614 C47.0194038,35.1717133 43.1106329,35.8878804 44.1826849,39.6094651 C44.3799093,40.2960629 45.332902,40.0021446 45.1330893,39.309633" id="Fill-38" fill="#2E2B28"></path>
            <g id="Group-42" transform="translate(51.000000, 37.000000)">
                <mask id="mask-4" fill="white">
                    <use xlink:href="#path-3"></use>
                </mask>
                <g id="Clip-41"></g>
                <path d="M4.8624,2.5146 C5.57184,-0.9629 10.48992,3.4601 7.99104,4.3756 C8.07216,4.6816 8.1528,4.9876 8.23392,5.2941 C8.81232,4.9986 9.41904,5.0146 10.05456,5.3416 C10.836,7.0531 10.55136,7.9406 9.20112,8.0041 C8.436,8.1051 7.57968,7.8266 7.00992,7.2941 C6.684,6.9891 6.1056,7.2781 6.24576,7.7576 C6.93024,10.0966 1.96032,11.0416 1.17168,8.8146 C0.9696,8.2436 0.08592,8.4901 0.2904,9.0681 C1.47456,12.4141 8.18064,11.1051 7.12752,7.5041 C6.87264,7.6586 6.61824,7.8131 6.36336,7.9671 C7.88448,9.3906 10.50144,9.3821 11.51856,7.3956 C12.69312,5.1021 9.65568,3.7626 7.99104,4.3756 C7.43952,4.5786 7.67616,5.4981 8.23392,5.2941 C12.86064,3.5991 5.05344,-2.9959 3.98112,2.2616 C3.8592,2.8606 4.74,3.1151 4.8624,2.5146" id="Fill-40" fill="#2E2B28" mask="url(#mask-4)"></path>
            </g>
            <path d="M28.6972051,19.8811579 C28.748527,15.9038089 33.6927095,16.5132458 36.1139869,17.2076948 C37.749683,17.6769171 39.0454348,18.2499204 40.7222901,17.6272348 C41.3427266,17.3970398 42.1328811,16.9096007 42.5800425,16.3868318 C42.869173,16.0489918 43.1516977,15.7056314 43.4438771,15.3694475 C43.826505,15.6487727 44.209641,15.928098 44.5932851,16.2074233 C44.419502,16.5143499 44.206084,16.7820826 43.952015,17.0095174 C43.6715229,17.2899467 43.9748812,17.6989982 44.2909431,17.6421395 C45.1847577,18.0037167 45.3473619,18.4420255 44.7787555,18.9565139 C44.5627969,19.2132061 44.3107604,19.4119356 44.0226462,19.5543584 C44.1400261,19.7724087 44.2574059,19.9904591 44.3742777,20.2079574 C45.7686083,19.378262 45.086179,20.8140822 44.7091406,21.5090833 C43.9870766,22.8372584 42.6461005,23.5085223 41.3472998,23.9766405 C39.278162,24.72298 37.3843318,23.923094 35.4544238,23.2126362 C33.7043966,22.5678696 30.0427544,21.0150198 29.0778004,23.6879308 C28.9136719,24.1428004 29.5879709,24.3382177 29.750067,23.8894204 C30.5590226,21.6470898 34.946794,23.8204171 36.3213072,24.3326975 C38.4249984,25.1165747 40.615073,25.3583622 42.6857352,24.2344368 C44.2518164,23.3843164 45.6979771,22.1030635 45.9805018,20.0975522 C46.1878221,18.6252982 44.6883069,19.1585555 44.0226462,19.5543584 C43.6283311,19.7889695 43.9799626,20.4425686 44.3742777,20.2079574 C46.044019,19.2165183 46.7310216,16.4387223 44.1059808,16.9118088 C44.2187875,17.1226828 44.3321022,17.3335568 44.4449089,17.5444308 C45.1019313,16.8886237 46.5160792,14.1428452 44.5978584,14.0042866 C43.5886964,13.9314191 42.9601297,14.8014125 42.338677,15.5582404 C40.8335723,17.3909675 38.8091507,17.3755108 36.8258882,16.6810618 C33.8812286,15.6504288 28.0625408,15.0520324 28.0000398,19.8811579 C27.9939421,20.3702531 28.6905993,20.3691491 28.6972051,19.8811579" id="Fill-43" fill="#2E2B28"></path>
            <path d="M28.6420549,20.8333442 C30.5080111,17.6411671 34.138008,18.9409184 37.0790749,19.4378376 C39.6444525,19.872264 42.1014198,19.6681542 43.9099237,17.6003451 C44.2011827,17.2677217 43.7180824,16.7773541 43.4253246,17.1119934 C39.2113109,21.9299936 31.5031878,14.5785115 28.0500446,20.4845935 C27.8252306,20.8696304 28.4177404,21.2168691 28.6420549,20.8333442" id="Fill-45" fill="#2E2B28"></path>
            <path d="M29.6435279,21.8505395 C31.5758238,19.1490273 35.1268328,21.8750383 37.6765256,21.7561167 C38.1068473,21.7367217 38.1088011,21.036462 37.6765256,21.0563674 C34.7311908,21.1936632 31.3311119,18.3298459 29.0647183,21.4973472 C28.8063299,21.8592161 29.3880702,22.2073044 29.6435279,21.8505395" id="Fill-47" fill="#2E2B28"></path>
            <path d="M40.3297595,20.9923243 C42.0445803,21.0748512 43.5953011,20.4860708 44.8866539,19.5072843 C45.2228346,19.2526046 44.736021,18.8239973 44.402833,19.0773459 C43.246152,19.9545267 41.8615264,20.4572307 40.3297595,20.3835777 C39.8888341,20.3622804 39.891328,20.9710271 40.3297595,20.9923243" id="Fill-49" fill="#2E2B28"></path>
            <path d="M28.8695107,30 C28.8695107,30 28.8962562,30.0437368 28.9270136,30.1182881 C28.951976,30.1954901 29.0090331,30.2909158 28.9987807,30.4287529 C28.9969976,30.4966774 28.9903113,30.5718914 28.97783,30.6517441 C28.96312,30.7312655 28.9328084,30.8031661 28.9011596,30.8830189 C28.8445483,31.0447124 28.7224105,31.1941463 28.6020557,31.3439116 C28.4549554,31.4797607 28.3105297,31.6179291 28.1259857,31.7133548 C27.9570433,31.8177266 27.7662587,31.8883019 27.5973163,31.9336954 C27.435506,31.9853843 27.2705754,31.9906857 27.1676052,31.9976438 C27.0615147,32.0029452 27,31.9976438 27,31.9976438 C27,31.9976438 27.0289743,31.9512563 27.0815738,31.8856512 C27.1319445,31.8154073 27.2148556,31.74185 27.2906345,31.6344961 C27.3311985,31.5844639 27.3757743,31.5331063 27.424362,31.4824114 C27.4725039,31.4300598 27.5144052,31.3697561 27.5674504,31.3147538 C27.6187127,31.2600828 27.6722037,31.2050805 27.7221286,31.1451081 C27.7707163,31.0854671 27.8295564,31.0301335 27.8852762,30.9734745 C27.9369842,30.9144961 27.9873549,30.8555177 28.0453035,30.8001841 C28.1054808,30.7455131 28.1536227,30.6878601 28.2062222,30.6331891 C28.2561472,30.5785182 28.3207822,30.5255039 28.3666953,30.4771284 C28.4117169,30.4287529 28.4607503,30.3826967 28.5097837,30.3382973 C28.5597087,30.2958859 28.6114166,30.2514864 28.6475231,30.2057616 C28.684521,30.1623562 28.7255308,30.1252462 28.7571796,30.094763 C28.8227061,30.0334653 28.8695107,30 28.8695107,30" id="Fill-51" fill="#2E2B28"></path>
            <path d="M30.4804031,31 C30.4804031,31 30.5527502,31.0411156 30.6440885,31.1103268 C30.7290964,31.1877611 30.8629386,31.2569724 30.9235293,31.4193789 C30.9551811,31.4954427 30.9805026,31.5838412 30.9940677,31.6797776 C31.0031111,31.7661203 31.0022068,31.8483515 30.9886417,31.9374352 C30.9705549,32.1183438 30.8783123,32.2780093 30.7688873,32.4321927 C30.5292374,32.7268544 30.1385629,32.9153008 29.7668796,32.9721773 C29.5832987,33.003014 29.4060483,33.0023287 29.2749191,32.9975319 C29.1455986,32.9913646 29.058782,32.9762889 29.058782,32.9762889 C29.058782,32.9762889 29.0370779,32.9077629 29.0226085,32.8118265 C29.0045217,32.7124639 29,32.5884319 29,32.4548063 C29.0090434,32.1889255 29.0967643,31.9271563 29.2577366,31.7318573 C29.3038579,31.6852597 29.3355098,31.6366062 29.3897702,31.5948054 C29.4413175,31.5509488 29.4946735,31.511889 29.5462208,31.4748849 C29.5977681,31.4385662 29.6674023,31.4008769 29.7298017,31.3700402 C29.7958184,31.3433151 29.8582178,31.3172752 29.9151912,31.2926059 C30.0644071,31.248064 30.1837799,31.1336256 30.2941093,31.0863427 C30.4008213,31.0308367 30.4804031,31 30.4804031,31" id="Fill-53" fill="#2E2B28"></path>
            <path d="M4.65672061,26 C4.65672061,26 4.66799145,26.0478811 4.6700407,26.1246976 C4.66645452,26.1636226 4.67823767,26.2108148 4.68848389,26.2531845 C4.69616856,26.296243 4.71307482,26.3430908 4.73151801,26.3947611 C4.75969512,26.4950014 4.81604933,26.598342 4.87650202,26.7006492 C4.90621606,26.751975 4.94412707,26.8033009 4.97998884,26.8556601 C5.02148603,26.9066415 5.052737,26.9617564 5.10243116,27.0134267 C5.18235168,27.120901 5.28583849,27.2266528 5.38061603,27.3327492 C5.4866644,27.4433236 5.58502811,27.5466642 5.66955942,27.6351926 C5.76638619,27.7364664 5.84681902,27.8205168 5.90368554,27.8797654 C5.96567516,27.9417697 6,27.9862062 6,27.9862062 C6,27.9862062 5.93135033,27.9965402 5.81300649,27.9989515 C5.69312572,28.0037741 5.52764928,27.9924066 5.33604497,27.9555485 C4.95591022,27.8832101 4.48560874,27.669984 4.22023166,27.334816 C4.09112929,27.1691266 4.00249949,26.9817356 4.00147487,26.7971004 C3.99430251,26.7068497 4.01428264,26.6165989 4.03989819,26.5363377 C4.0731984,26.4546986 4.10752324,26.3809823 4.16438976,26.3179446 C4.20998544,26.2552513 4.27248738,26.2008252 4.334477,26.1567332 C4.38929428,26.109541 4.4461608,26.0809501 4.49483034,26.0620044 C4.59114481,26.0199792 4.65672061,26 4.65672061,26" id="Fill-55" fill="#2E2B28"></path>
            <path d="M2.89609639,26 C2.89609639,26 2.94914439,26.0480358 3.0106127,26.1258081 C3.08555353,26.1955744 3.12007683,26.3288166 3.2253308,26.4168822 C3.26406426,26.4540528 3.30616584,26.4957982 3.35163556,26.5386873 C3.37942261,26.5729986 3.44257499,26.62275 3.4720461,26.6616361 C3.50572737,26.7028097 3.53098832,26.7428395 3.57140584,26.7811538 C3.6126654,26.8188962 3.61771759,26.8617853 3.65055683,26.9006715 C3.67918591,26.9412732 3.70697295,26.9807311 3.7187614,27.028767 C3.73812813,27.0733716 3.76844127,27.1174045 3.78275581,27.1682996 C3.8038066,27.2746646 3.86611695,27.3730236 3.88548368,27.4913976 C3.91411276,27.6057685 3.95453029,27.7092743 3.97137092,27.7996274 C3.99326375,27.8854056 4,27.9483096 4,27.9483096 C4,27.9483096 3.92169105,27.970612 3.79117613,27.9843365 C3.72633968,27.9911987 3.64382057,28.0009203 3.5570913,27.9997766 C3.47036203,27.9986329 3.36089791,28.0054951 3.26406426,27.9849083 C3.06871289,27.9477378 2.82031353,27.9008457 2.62748826,27.7784687 C2.52981258,27.7195677 2.41950642,27.6606666 2.3420395,27.5817506 C2.25952039,27.5034065 2.19299988,27.4153409 2.1273214,27.3284189 C2.07174731,27.2380659 2.04311823,27.1374194 2.02038337,27.0413478 C1.98838617,26.945848 1.99849055,26.8480608 2.02038337,26.7559922 C2.04311823,26.6610643 2.05743277,26.5810046 2.11637499,26.4940826 C2.17110706,26.4083044 2.2334174,26.3333914 2.29825385,26.2716311 C2.42624267,26.1446793 2.5862287,26.1137991 2.69906096,26.0617603 C2.81273524,26.0200149 2.89609639,26 2.89609639,26" id="Fill-57" fill="#2E2B28"></path>
            <path d="M43.1743961,37.782047 C40.3700588,32.6260975 33.3771572,28.9695475 30.0595794,27.495446 C28.9558949,27.0011599 28.2713931,26.7496383 28.269762,26.7481788 L28.269762,26.7496383 C28.0479377,26.6674194 27.9413751,26.4402229 28.0327145,26.24173 C28.1235102,26.0422642 28.3779557,25.9478828 28.59978,26.0291286 C28.6302264,26.0549132 39.9481578,30.1682887 43.9556743,37.440036 C44.0611496,37.6331774 43.9719849,37.8657254 43.7561412,37.9605933 C43.6952482,37.9873509 43.6294621,38 43.5653071,38 C43.403832,38 43.2499686,37.9197271 43.1743961,37.782047" id="Fill-59" fill="#2E2B28"></path>
            <path d="M45.2233932,36.8032285 C41.0793097,30.0552975 34.1747605,26.6490299 30.9898881,25.3786454 C29.9296526,24.9550195 29.2964274,24.7725497 29.2948652,24.7715634 L29.2959067,24.7725497 C29.0751111,24.7089319 28.9516947,24.4884886 29.0178292,24.2793881 C29.085526,24.0707807 29.3182987,23.9534082 29.5385736,24.0175192 C29.5786709,24.0342867 40.2117496,27.1027386 45.9435826,36.4077128 C46.0591879,36.5951143 45.9914911,36.8367635 45.792046,36.9467385 C45.726953,36.9827393 45.6545695,37 45.5837483,37 C45.4400228,37 45.2999426,36.9294779 45.2233932,36.8032285" id="Fill-61" fill="#2E2B28"></path>
            <path d="M48.2288238,35.7877676 C44.2839935,28.6576836 38.3783157,24.9012213 35.6843354,23.4777739 C34.7866847,23.0039766 34.2602275,22.7937997 34.2586851,22.792772 L34.2597133,22.7937997 C34.0484107,22.7090095 33.9450729,22.4690276 34.0293883,22.2593646 C34.1142178,22.04816 34.353797,21.9448701 34.5645855,22.0296603 C34.6072574,22.0497016 43.5323524,25.6170561 48.9485896,35.3905384 C49.0586109,35.5888961 48.9861202,35.8391556 48.7876705,35.9480981 C48.724434,35.9835558 48.6560562,36 48.5887067,36 C48.4437253,36 48.3038851,35.9234319 48.2288238,35.7877676" id="Fill-63" fill="#2E2B28"></path>
            <path d="M49.2219052,34.7493702 C46.9370093,29.4240124 43.5495686,26.4701606 42.0144439,25.3354814 C41.5025663,24.957957 41.2092659,24.7894664 41.2087576,24.7889398 L41.2092659,24.7894664 C41.0125463,24.6767882 40.9423982,24.4203665 41.0511786,24.2165981 C41.1604673,24.0128297 41.4080188,23.9401681 41.6042301,24.0533728 C41.6484539,24.0796995 46.8129794,27.0667229 49.9650682,34.4081766 C50.0560574,34.619843 49.9630349,34.8694197 49.7586905,34.9636692 C49.705317,34.9884163 49.6494018,35 49.5945033,35 C49.4379409,35 49.288495,34.9062771 49.2219052,34.7493702" id="Fill-65" fill="#2E2B28"></path>
        </g>
    </g>
</svg>