<?xml version="1.0" encoding="UTF-8"?>
<svg width="55px" height="38px" viewBox="0 0 55 38" version="1.1" xmlns="http://www.w3.org/2000/svg" xmlns:xlink="http://www.w3.org/1999/xlink">
    <!-- Generator: Sketch 48.2 (47327) - http://www.bohemiancoding.com/sketch -->
    <title>Page 1</title>
    <desc>Created with Sketch.</desc>
    <defs></defs>
    <g id="Mobile" stroke="none" stroke-width="1" fill="none" fill-rule="evenodd" transform="translate(-222.000000, -858.000000)">
        <g id="Page-1" transform="translate(222.000000, 858.000000)" fill="#2E2B28">
            <path d="M27.0247113,18.3611683 C27.8561951,21.422278 28.9031752,24.4229018 30.1616731,27.3367416 C31.4400629,30.2959458 32.7217681,33.6213523 34.864132,36.0802334 C38.328648,40.0584925 44.2624191,36.9783167 47.6679223,34.6897164 C51.8140694,31.9027654 56.5735519,28.1585601 54.4968315,22.6727571 C53.4538299,19.9186788 50.9229097,17.5169963 48.9065282,15.4545605 C46.4578282,12.9503151 43.7896535,10.6603999 41.1824809,8.32051815 C40.8854277,8.61571537 40.5870483,8.91157004 40.2899951,9.20545235 C41.0180407,9.85699009 41.7255314,10.5657264 42.4980024,11.1666401 C43.1219468,11.6505269 43.9806163,10.870128 43.3911513,10.2810485 C42.6432137,9.53023504 41.8210128,8.74326161 40.959691,8.12196679 C40.3277898,7.6663506 39.7926961,8.59730664 40.1945137,9.10617667 C40.2223624,9.14233669 40.2535265,9.17652434 40.2899951,9.20545235 C40.3324312,8.87803985 40.3748674,8.54996989 40.4173036,8.22255738 C36.0496927,11.3665064 31.6827448,14.5104554 27.3144708,17.6544043 C26.6626776,18.1238271 27.2919266,19.2105999 27.9523396,18.7346026 C32.3199505,15.5919686 36.6868984,12.4480196 41.0551724,9.30407058 C41.3807374,9.0693592 41.4901432,8.62820701 41.1824809,8.32051815 C41.1466754,8.29159014 41.1148482,8.25674503 41.0869995,8.22058502 C40.8323824,8.54799752 40.5771023,8.87606748 40.3224853,9.20347999 C41.0286498,9.71235002 41.8375894,10.5052405 42.4980024,11.1666401 C42.7963818,10.870128 43.093435,10.5749308 43.3911513,10.2810485 C42.6180172,9.68013474 41.9111896,8.97205589 41.1824809,8.32051815 C40.5797546,7.78140519 39.6846165,8.66305212 40.2899951,9.20545235 C43.9189513,12.463141 47.6162032,15.657714 50.7942751,19.3637869 C52.6826849,21.566918 54.4338403,24.1145555 53.5380391,27.113207 C52.7556221,29.7318495 49.6995543,31.6858053 47.6215077,33.1920343 C43.6683126,36.0598523 37.8379797,38.9848688 34.6247654,33.6062308 C31.7636388,28.8147001 29.6988535,23.3913552 28.2420991,18.0284961 C28.0305813,17.2494122 26.8125304,17.5807694 27.0247113,18.3611683" id="Fill-1"></path>
            <path d="M44.5133988,9.91257726 C43.9903737,7.50767137 44.3060496,4.96029476 45.5328657,2.78967407 C47.6329411,-0.927228923 50.9810991,3.27090852 51.6151092,5.68467926 C52.7807839,10.1310324 48.6756683,14.4741734 51.724765,18.7286659 C52.1819966,19.3663016 53.2792195,18.7634921 52.8173359,18.1195244 C50.6135859,15.0440563 52.5362182,11.2556013 52.9469291,7.91608746 C53.3071319,4.99068851 51.8098314,1.98044033 49.1834081,0.412629122 C47.2847007,-0.722071075 45.4384953,0.686806123 44.4396303,2.18053255 C42.9084362,4.47209506 42.7303285,7.6495089 43.2932284,10.2329781 C43.4587091,10.9940884 44.6788794,10.6717879 44.5133988,9.91257726" id="Fill-3"></path>
            <path d="M31.5658889,18.8907426 C30.8621708,19.9165139 30.7481976,21.4018259 31.605647,22.3858749 C32.6943559,23.6345622 34.4702171,22.7470704 35.3548346,21.7767301 C36.3057155,20.734866 36.2202356,19.3121373 35.000325,18.4818646 C33.8950501,17.7308641 32.3716528,17.8506666 31.5658889,18.8907426 C31.0987314,19.4933311 32.1940667,20.0595616 32.6552605,19.4635295 C33.0568172,18.9461736 33.7870407,19.101738 34.2820289,19.4069064 C35.0380951,19.8724075 34.7690654,20.6776469 34.2555235,21.1902345 C33.8241482,21.6205697 32.962723,22.2440193 32.4909271,21.552622 C32.0681661,20.9315566 32.2550291,20.0470449 32.6552605,19.4635295 C33.0846478,18.8394839 31.9926257,18.2690811 31.5658889,18.8907426" id="Fill-5"></path>
            <path d="M15.3231019,22.1536534 C20.8887424,25.0712336 26.455759,27.9888138 32.0158951,30.9161539 C32.7548614,31.3052514 33.4153898,30.2355587 32.6777997,29.8464613 C27.1176636,26.9184705 21.550647,24.001541 15.9843185,21.0833101 C15.2446642,20.695514 14.5841357,21.7658573 15.3231019,22.1536534" id="Fill-7"></path>
            <path d="M16.4386908,20.228476 C20.7022064,21.4764654 24.9663763,22.7244547 29.2298918,23.9717903 C30.0034106,24.1979843 30.3312727,22.9964105 29.5610259,22.771524 C25.2981648,21.5228809 21.0333405,20.276199 16.769825,19.0282097 C15.9963061,18.8020157 15.6690985,20.0035895 16.4386908,20.228476" id="Fill-9"></path>
            <path d="M12.317684,23.495979 C14.0761592,24.8476376 16.0013688,23.2392318 16.6615564,21.5167162 C17.5424816,19.2161796 16.6750572,16.9713396 14.3934273,16.0340085 C14.073459,15.9022388 13.6819367,16.1746082 13.6029572,16.4863727 C13.0757522,18.5790662 12.5492222,20.6724389 12.0226922,22.7651325 C11.8181556,23.57409 13.0582012,23.9170988 13.2613878,23.1088205 C13.7892678,21.016127 14.3157978,18.9227543 14.8430029,16.8300607 C14.5790628,16.9801695 14.3157978,17.1309576 14.0518578,17.2817456 C15.6294227,17.9304059 16.0027189,19.4457578 15.4984652,20.9719774 C15.1420449,22.0505873 14.0768342,23.2331188 12.966396,22.3786532 C12.3075585,21.8712718 11.668297,22.9967483 12.317684,23.495979" id="Fill-11"></path>
            <path d="M34.7717746,19.9152696 C31.7286366,17.3220448 29.3857276,12.795073 28.5575997,9.06367294 C28.3189502,7.98846638 28.3196647,6.74060385 29.1535088,5.89492816 C30.4417872,4.59019073 32.3695605,6.04997999 33.3577408,6.86586406 C35.1311779,8.32700749 36.4794759,10.2729418 37.717738,12.1464283 C38.1814611,12.8485625 39.3597035,12.2026261 38.8924078,11.4950752 C37.218289,8.96075644 30.54182,0.0848856463 27.446522,5.98904259 C26.2246939,8.32091375 27.7894913,11.5465334 28.8055379,13.6705404 C29.9966417,16.1608487 31.631462,18.97074 33.809317,20.8272994 C34.4595297,21.3818297 35.4255599,20.4718312 34.7717746,19.9152696" id="Fill-13"></path>
            <path d="M46,18 C46,18 46.517017,18.2431852 47.1749842,18.7804395 C47.5096658,19.0421279 47.8683388,19.3903849 48.2312104,19.7961341 C48.4069482,20.0029737 48.5886839,20.2203866 48.752426,20.462911 C48.9269642,20.6942012 49.0739122,20.9598546 49.2286574,21.2162564 C49.3624101,21.4924831 49.5105577,21.7574756 49.611322,22.050223 C49.73008,22.3310755 49.8068528,22.6317528 49.8788274,22.9172311 C49.9376066,23.2106394 49.9819909,23.4974393 49.9909877,23.7749876 C50.0071819,24.0505534 50.0035832,24.3102594 49.9633974,24.5488188 C49.9472032,24.667768 49.9400057,24.780109 49.916614,24.8865026 C49.8866246,24.9902528 49.8584346,25.0893772 49.8320439,25.1812324 C49.7858603,25.3656038 49.7234823,25.5175946 49.659305,25.6365439 C49.5405471,25.8764249 49.4613751,26 49.4613751,26 C49.4613751,26 49.4427817,25.8387576 49.4301861,25.5836775 C49.4313857,25.4561375 49.4085938,25.3021642 49.3846023,25.1323311 C49.3666086,24.9605154 49.3360194,24.7728399 49.2898358,24.5732695 C49.2562477,24.3743598 49.1860725,24.1655377 49.1284929,23.9474641 C49.0691139,23.7287296 48.9695491,23.5073517 48.8891776,23.2780439 C48.7914122,23.0527011 48.6978453,22.8194284 48.5802869,22.5861556 C48.475324,22.3515612 48.3421712,22.1202709 48.2228134,21.8843549 C47.9631053,21.419131 47.6902019,20.9539072 47.4238961,20.5144556 C47.1581901,20.0730216 46.901481,19.6580208 46.6873568,19.2879564 C46.4702336,18.9218569 46.2974947,18.603998 46.1787367,18.3713861 C46.0587792,18.1420783 46,18 46,18" id="Fill-15"></path>
            <path d="M48.029847,29.8066231 C48.029847,29.8066231 48.0123816,29.7177261 48.0059469,29.5901783 C47.9958354,29.4635968 47.9976739,29.2983643 48.0188162,29.1283006 C48.06202,28.7901056 48.2192085,28.4673709 48.4618855,28.2692853 C48.642974,28.0683008 48.9260971,27.9919654 49.244151,28.0006619 C49.4022587,28.0054932 49.5612857,28.0248186 49.6853818,28.0470429 C49.8085588,28.0663683 49.8958857,28.0905251 49.8958857,28.0905251 C49.8958857,28.0905251 49.9280588,28.1726582 49.9556357,28.2944084 C49.9841319,28.4171248 50.0052742,28.5794584 49.9988396,28.7582186 C49.9878088,29.1138065 49.8306203,29.4974163 49.5723164,29.7592758 C49.3250433,29.9583277 48.9858471,30.0307981 48.6576817,29.9882821 C48.4940586,29.9679904 48.3414662,29.927407 48.2238047,29.8858574 C48.1089008,29.8472065 48.029847,29.8066231 48.029847,29.8066231" id="Fill-17"></path>
            <path d="M9,20 C5.52693476,20.1434329 -3.06326624,24.7663317 1.12722386,28.1813004 C5.31703906,31.5948629 7.72780257,23.4480145 9,20" id="Fill-19"></path>
            <path d="M9,17.0712986 C6.93109534,15.4136565 -0.513665462,13.372557 0.0281087745,17.099547 C0.569883011,20.8265371 6.39138108,18.1002628 9,17.0712986" id="Fill-21"></path>
        </g>
    </g>
</svg>