<?xml version="1.0" encoding="UTF-8"?>
<svg width="29px" height="26px" viewBox="0 0 29 26" version="1.1" xmlns="http://www.w3.org/2000/svg" xmlns:xlink="http://www.w3.org/1999/xlink">
    <!-- Generator: Sketch 48.2 (47327) - http://www.bohemiancoding.com/sketch -->
    <title>Page 1</title>
    <desc>Created with Sketch.</desc>
    <defs>
        <polygon id="path-1" points="0.384236842 0.417711497 17.4612414 0.417711497 17.4612414 17.9998919 0.384236842 17.9998919"></polygon>
        <polygon id="path-3" points="0.512622305 0.27875 16.914662 0.27875 16.914662 9.47296958 0.512622305 9.47296958"></polygon>
    </defs>
    <g id="Mobile-Copy-4" stroke="none" stroke-width="1" fill="none" fill-rule="evenodd" transform="translate(-190.000000, -17.000000)">
        <g id="Page-1" transform="translate(190.000000, 17.000000)">
            <path d="M8.38134823,10.3690294 C7.91009244,6.84100945 2.29843634,7.71363631 0.674522849,9.99943902 C-1.67861022,13.3116083 2.65329384,15.6459928 5.56450953,15.6613668 C6.3818143,15.6656715 6.33651335,14.5390666 5.56450953,14.4517424 C1.74916223,14.0212711 -0.443529948,18.1537957 2.03103485,21.0877652 C5.19392253,24.8371704 11.3649196,22.5845755 12.9561158,18.5381451 C13.2423926,17.8088037 12.0450632,17.4957896 11.7625614,18.2165215 C10.5388063,21.3294441 5.89545819,23.1122104 3.20885975,20.5921083 C0.994146271,18.5135468 2.66650662,15.3342086 5.56450953,15.6613668 L5.56450953,14.4517424 C3.79399711,14.442518 1.37039589,13.8250991 1.2665812,11.7151747 C1.1627665,9.60033061 6.82979044,8.01988591 7.14375124,10.3690294 C7.2456784,11.1309636 8.48453375,11.140803 8.38134823,10.3690294" id="Fill-1" fill="#2E2B28"></path>
            <g id="Group-5" transform="translate(11.000000, 8.000000)">
                <mask id="mask-2" fill="white">
                    <use xlink:href="#path-1"></use>
                </mask>
                <g id="Clip-4"></g>
                <path d="M1.40623448,10.3403571 C-1.39183448,13.869 2.0294069,18.3342857 5.95837241,17.9800714 C10.293269,17.5898571 12.9274759,12.3499286 11.2360966,8.42592857 C10.9549241,7.77342857 9.88051034,8.244 10.1207172,8.91321429 C12.147269,14.5793571 17.2449931,7.43142857 17.4523034,4.25057143 C17.7750621,-0.712285714 9.75326897,-0.394071429 10.5148552,2.58364286 C10.7159586,3.37114286 11.8940276,3.03685714 11.6916828,2.24742857 C11.5594759,1.73057143 13.6220276,1.54092857 13.8305793,1.54028571 C15.5734759,1.53192857 16.4095448,3.39428571 16.1513379,4.96092857 C15.8850621,6.57514286 12.5401655,12.0516429 11.2975448,8.577 C10.9257517,8.73964286 10.5539586,8.90228571 10.1821655,9.06428571 C11.3341655,11.7366429 10.005269,14.4372857 7.80802759,15.9769286 C4.85602759,18.0456429 -0.575627586,14.8223571 2.26961379,11.2339286 C2.76430345,10.6097143 1.90651034,9.70971429 1.40623448,10.3403571" id="Fill-3" fill="#2E2B28" mask="url(#mask-2)"></path>
            </g>
            <g id="Group-8" transform="translate(6.000000, 0.000000)">
                <mask id="mask-4" fill="white">
                    <use xlink:href="#path-3"></use>
                </mask>
                <g id="Clip-7"></g>
                <path d="M1.86918148,8.295625 C0.124477778,-1.095 16.1202185,-0.735 15.6649963,8.88 C15.6272185,9.6725 16.8657,9.66875 16.9034778,8.88 C17.438663,-2.420625 -1.42126296,-2.6675 0.675403704,8.6225 C0.820218519,9.40125 2.01336667,9.07 1.86918148,8.295625" id="Fill-6" fill="#2E2B28" mask="url(#mask-4)"></path>
            </g>
        </g>
    </g>
</svg>