<?xml version="1.0" encoding="UTF-8"?>
<svg width="30px" height="24px" viewBox="0 0 30 24" version="1.1" xmlns="http://www.w3.org/2000/svg" xmlns:xlink="http://www.w3.org/1999/xlink">
    <!-- Generator: Sketch 48.2 (47327) - http://www.bohemiancoding.com/sketch -->
    <title>Page 1</title>
    <desc>Created with Sketch.</desc>
    <defs>
        <polygon id="path-1" points="0 0.10481883 14.5142685 0.10481883 14.5142685 10.9999231 0 10.9999231"></polygon>
    </defs>
    <g id="Mobile-Copy-2" stroke="none" stroke-width="1" fill="none" fill-rule="evenodd" transform="translate(-186.000000, -13.000000)">
        <g id="Page-1" transform="translate(186.000000, 13.000000)">
            <path d="M13.1200605,9.65240062 C14.2714975,6.14182418 17.3337443,4.42857553 21.1064277,5.27373452 C25.3414131,6.22317347 27.3017346,10.9479835 24.6557323,14.2319831 C24.2118533,14.7823192 25.1957563,15.3162762 25.6327266,14.7735837 C28.4163256,11.319242 26.7559534,6.06538862 22.4052487,4.55414824 C17.7868348,2.94954729 13.4890961,4.91284945 12.0284982,9.36685918 C11.8108766,10.0296647 12.9041661,10.3113844 13.1200605,9.65240062" id="Fill-1" fill="#2E2B28"></path>
            <g id="Group-5" transform="translate(0.000000, 13.000000)">
                <mask id="mask-2" fill="white">
                    <use xlink:href="#path-1"></use>
                </mask>
                <g id="Clip-4"></g>
                <path d="M4.66587931,0.885225 C3.67122414,-0.394075 2.13656897,0.056925 1.14915517,1.107425 C-0.0984310345,2.435125 0.732775862,4.062575 1.90432759,4.976125 C1.98967241,4.640625 2.07553448,4.304575 2.16087931,3.968525 C0.786051724,4.027375 0.0107068966,4.754475 -0.000155172414,6.247175 C-0.0130862069,8.058875 1.59967241,9.584025 3.04432759,10.212675 C7.07622414,11.967725 12.4250172,10.818225 14.4562241,6.463325 C14.7463966,5.840175 13.8691552,5.292375 13.5779483,5.917175 C12.3520862,8.546175 10.146569,9.629675 7.48277586,9.843075 C6.23932759,9.942075 5.00725862,9.793025 3.82225862,9.390975 C3.01639655,9.117075 2.34812069,8.568175 1.75174138,7.953275 C1.24898276,7.434625 0.168982759,5.135075 2.16087931,5.050375 C2.69518966,5.027275 2.81725862,4.354075 2.41743103,4.042775 C0.362431034,2.438975 2.85398276,0.245025 3.94691379,1.650275 C4.36484483,2.188175 5.08018966,1.418175 4.66587931,0.885225" id="Fill-3" fill="#2E2B28" mask="url(#mask-2)"></path>
            </g>
            <path d="M4.75459041,13.7976384 C1.39473706,8.30048996 13.0996679,3.30805248 13.0985372,11.0686311 C13.0985372,11.7983614 14.2071814,11.7977859 14.2105735,11.0686311 C14.2258378,7.76585314 21.1010148,8.82131485 18.852067,12.1649531 C18.5298196,12.6431912 19.1522659,13.2215658 19.6124578,12.9389967 C21.3966909,12.8423132 22.1463402,13.3493262 21.8614056,14.4600356 C21.7777344,15.184011 22.890336,15.175954 22.9728765,14.4600356 C23.2668566,11.9094324 21.1191059,10.691105 19.0510689,11.9618026 C19.3049094,12.2196253 19.5587499,12.4780235 19.8114598,12.7358462 C23.0763349,7.88267906 13.1234124,5.78729406 13.0985372,11.0686311 L14.2105735,11.0686311 C14.2122695,1.40488351 -0.530832612,7.29164352 3.79463231,14.3691071 C4.17284902,14.987191 5.13450316,14.4197508 4.75459041,13.7976384" id="Fill-6" fill="#2E2B28"></path>
            <path d="M15.0454126,20.1660659 C17.0687791,24.7345449 26.8567774,23.1692667 29.2777072,19.7671268 C30.3222739,18.298726 30.2239199,16.7524967 29.0472271,15.3657342 C27.2531558,13.2491253 23.5542167,14.0470036 21.2725229,14.7550797 C20.5650853,14.9749589 20.8684421,16.0084997 21.5823972,15.787532 C23.4925973,15.1942938 25.6824546,14.634255 27.564215,15.5954099 C28.7948248,16.2234805 29.1402487,17.6755537 28.5886369,18.7803919 C27.5102981,20.9416297 24.3013514,21.6780072 21.9764056,21.7727076 C20.1770018,21.8456378 16.975165,21.7019544 16.1687809,19.8814204 C15.8897163,19.2506285 14.761608,19.526566 15.0454126,20.1660659" id="Fill-8" fill="#2E2B28"></path>
            <path d="M11.2090519,4.15364219 C11.7161382,4.63687059 12.2354695,5.1214718 12.6712468,5.66510375 C12.9046218,5.95682544 13.2755727,6.11057994 13.640041,5.90740436 C13.9425641,5.73854898 14.1283997,5.2772855 13.8943045,4.984191 C13.3821761,4.34446249 12.8073822,3.76719674 12.2109796,3.19885425 C11.5641564,2.58314988 10.5622287,3.53793781 11.2090519,4.15364219" id="Fill-10" fill="#2E2B28"></path>
            <path d="M15.0171094,0.680257115 C15.1963145,1.32071213 15.3708851,1.96227042 15.5230549,2.60713856 C15.6844941,3.29558633 17.1490327,3.00266504 16.9875935,2.3186304 C16.8354237,1.67376226 16.6608531,1.03275561 16.481648,0.391748957 C16.2900839,-0.294492246 14.8263177,-0.00322588335 15.0171094,0.680257115" id="Fill-12" fill="#2E2B28"></path>
            <path d="M23.6405224,1.1870809 C22.9653803,1.72675373 22.5264158,2.41298904 22.0931521,3.07314119 C21.6313842,3.77490218 23.0126158,4.39406652 23.4751981,3.68920039 C23.8433094,3.12903366 24.2000189,2.50862726 24.7733604,2.05093005 C25.4859651,1.48082687 24.3539416,0.6163567 23.6405224,1.1870809" id="Fill-14" fill="#2E2B28"></path>
            <path d="M27.8079102,3.08504246 C27.265215,3.35913179 26.7088113,3.63322111 26.2394968,3.97812194 C25.5048826,4.51836482 26.6273667,5.36688189 27.3603681,4.82724945 C27.7353358,4.55193924 28.1756205,4.34011519 28.6086478,4.12157626 C28.9666815,3.94027441 29.1207005,3.59537359 28.8924943,3.30052917 C28.6836413,3.03071295 28.1675567,2.90313017 27.8079102,3.08504246" id="Fill-16" fill="#2E2B28"></path>
            <path d="M27.5515526,10 L29.448882,10 C30.183706,10 30.183706,9 29.448882,9 L27.5515526,9 C26.8161491,9 26.8161491,10 27.5515526,10" id="Fill-18" fill="#2E2B28"></path>
            <path d="M27.7167237,14.2746515 C27.4688233,14.2533035 27.5789202,14.2584788 27.651103,14.2798268 C27.6773513,14.2875897 27.8326535,14.3464585 27.6904754,14.2914712 C27.8311953,14.3458116 27.9689987,14.407268 28.1053439,14.4680775 C28.3933458,14.5968125 28.6762438,14.7371919 28.9467469,14.893744 C29.7225292,15.3446399 30.4399819,14.2423061 29.6700326,13.7952916 C29.3543242,13.6115693 29.0203879,13.4524295 28.6828059,13.3042872 C28.3729305,13.1690831 28.0637842,13.0319383 27.7167237,13.0021805 C27.3266452,12.9691881 27,13.3165785 27,13.6387395 C27,14.0100655 27.3281034,14.2416592 27.7167237,14.2746515" id="Fill-20" fill="#2E2B28"></path>
        </g>
    </g>
</svg>