<?xml version="1.0" encoding="UTF-8"?>
<svg width="32px" height="31px" viewBox="0 0 32 31" version="1.1" xmlns="http://www.w3.org/2000/svg" xmlns:xlink="http://www.w3.org/1999/xlink">
    <!-- Generator: Sketch 48.2 (47327) - http://www.bohemiancoding.com/sketch -->
    <title>Page 1</title>
    <desc>Created with Sketch.</desc>
    <defs>
        <polygon id="path-1" points="0 0.561434414 19.5660841 0.561434414 19.5660841 8.89285826 0 8.89285826"></polygon>
        <polygon id="path-3" points="0.0255655745 0.442697805 13.7175652 0.442697805 13.7175652 8.79688605 0.0255655745 8.79688605"></polygon>
        <polygon id="path-5" points="0.333398584 0.503684211 16.9261345 0.503684211 16.9261345 10.5744566 0.333398584 10.5744566"></polygon>
        <polygon id="path-7" points="0.0145577245 0.2659375 2.46261496 0.2659375 2.46261496 5 0.0145577245 5"></polygon>
        <polygon id="path-9" points="0.44283863 0.2659375 2.89065496 0.2659375 2.89065496 5 0.44283863 5"></polygon>
        <polygon id="path-11" points="0.27441863 0.2659375 2.72223496 0.2659375 2.72223496 5 0.27441863 5"></polygon>
        <polygon id="path-13" points="0.210862467 0.2659375 2.65865322 0.2659375 2.65865322 5 0.210862467 5"></polygon>
    </defs>
    <g id="Mobile" stroke="none" stroke-width="1" fill="none" fill-rule="evenodd" transform="translate(-179.000000, -24.000000)">
        <g id="Page-1" transform="translate(179.000000, 24.000000)">
            <g id="Group-3" transform="translate(0.000000, 9.000000)">
                <mask id="mask-2" fill="white">
                    <use xlink:href="#path-1"></use>
                </mask>
                <g id="Clip-2"></g>
                <path d="M5.27976471,0.627975 C1.20917647,-0.0903375 -1.92552941,5.1847875 1.39505882,7.8859125 C4.148,10.1241 9.44682353,8.24985 11.528,5.9734125 C11.2062353,5.793975 10.8838824,5.6145375 10.5615294,5.4351 C8.71623529,10.42785 17.9338824,8.367975 19.4938824,5.5341 C19.8409412,4.9035375 18.8427059,4.34385 18.4950588,4.9755375 C17.4903529,6.8002875 10.478,8.9737875 11.6768235,5.7292875 C11.868,5.2117875 11.0856471,4.7797875 10.7103529,5.190975 C9.29976471,6.73335 7.06682353,7.5146625 4.97388235,7.6856625 C3.63858824,7.7947875 2.29270588,7.4482875 1.49388235,6.3637875 C-0.00905882353,4.3230375 2.648,1.2844125 4.97270588,1.6950375 C5.70152941,1.8232875 6.01270588,0.75735 5.27976471,0.627975" id="Fill-1" fill="#2E2B28" mask="url(#mask-2)"></path>
            </g>
            <g id="Group-6" transform="translate(18.000000, 9.000000)">
                <mask id="mask-4" fill="white">
                    <use xlink:href="#path-3"></use>
                </mask>
                <g id="Clip-5"></g>
                <path d="M0.20866087,5.62278 C-0.381165217,7.42218 0.478313043,8.78358 2.43709565,8.79678 C4.34109565,8.80998 6.48613913,7.58958 7.32674783,5.90298 C7.01326957,5.94258 6.7004,5.98218 6.38631304,6.02238 C8.81318261,7.88898 12.4878783,8.34138 13.5658783,4.82298 C13.9213565,3.66198 13.6401391,2.40738 12.8500522,1.49358 C11.7373565,0.20718 9.74022609,0.33198 8.24587826,0.66978 C7.49292174,0.84078 7.81187826,1.97838 8.56361739,1.80798 C10.5997043,1.34718 13.0472696,1.97958 12.4111826,4.50978 C11.7470957,7.15218 8.8570087,6.43638 7.2330087,5.18778 C6.9524,4.97178 6.48005217,4.93218 6.29318261,5.30718 C5.70518261,6.48618 4.52431304,7.15878 3.27648696,7.49718 C1.90631304,7.86798 0.869095652,7.44258 1.36274783,5.93658 C1.60074783,5.21058 0.444834783,4.90158 0.20866087,5.62278" id="Fill-4" fill="#2E2B28" mask="url(#mask-4)"></path>
            </g>
            <g id="Group-9" transform="translate(4.000000, 0.000000)">
                <mask id="mask-6" fill="white">
                    <use xlink:href="#path-5"></use>
                </mask>
                <g id="Clip-8"></g>
                <path d="M2.16325,9.76082105 C0.00607142857,7.08145263 4.37628571,4.62034737 6.8255,5.82166316 C7.36646429,6.08682105 7.91835714,5.55766316 7.64210714,5.04297895 C6.09146429,2.15403158 16.1147857,-1.22702105 15.7189286,5.49861053 C15.6764286,6.23213684 16.8700714,6.22808421 16.9131786,5.49861053 C17.4007143,-2.79075789 3.95067857,0.660926316 6.61117857,5.61729474 C6.88317857,5.35792632 7.15578571,5.09797895 7.42778571,4.83861053 C3.98042857,3.14750526 -1.78742857,6.70918947 1.13232143,10.3357158 C1.59435714,10.9088737 2.63257143,10.3432421 2.16325,9.76082105" id="Fill-7" fill="#2E2B28" mask="url(#mask-6)"></path>
            </g>
            <path d="M20.1296489,5.24712518 C23.3915326,-0.109679922 31.4889243,6.64159886 27.9707979,10.0014461 C27.4154011,10.5312269 28.268113,11.3595682 28.8235099,10.8297873 C31.2228733,8.53903656 29.5542307,5.23401474 27.3651334,3.45576283 C24.5679195,1.18288991 20.9719395,1.56309257 19.0887396,4.65536776 C18.6915022,5.30790993 19.7336375,5.89668771 20.1296489,5.24712518" id="Fill-10" fill="#2E2B28"></path>
            <path d="M10.9598214,19 C10.9598214,19 7.73899148,22.0875884 9.55530422,22.905031 C11.3721072,23.7219455 10.9598214,19 10.9598214,19" id="Fill-12" fill="#2E2B28"></path>
            <path d="M14.9597054,19 C14.9597054,19 11.7386837,22.0875884 13.5555949,22.905031 C15.372506,23.7219455 14.9597054,19 14.9597054,19" id="Fill-14" fill="#2E2B28"></path>
            <path d="M19.9598253,19 C19.9598253,19 16.7388222,22.0875884 18.5554464,22.905031 C20.3720706,23.7219455 19.9598253,19 19.9598253,19" id="Fill-16" fill="#2E2B28"></path>
            <path d="M23.9598253,19 C23.9598253,19 20.7388222,22.0875884 22.5554464,22.905031 C24.3720706,23.7219455 23.9598253,19 23.9598253,19" id="Fill-18" fill="#2E2B28"></path>
            <g id="Group-22" transform="translate(7.000000, 26.000000)">
                <mask id="mask-8" fill="white">
                    <use xlink:href="#path-7"></use>
                </mask>
                <g id="Clip-21"></g>
                <path d="M2.41344,0.2659375 C2.41344,0.2659375 -1.52916,3.9203125 0.69444,4.8878125 C2.91804,5.8546875 2.41344,0.2659375 2.41344,0.2659375" id="Fill-20" fill="#2E2B28" mask="url(#mask-8)"></path>
            </g>
            <g id="Group-25" transform="translate(11.000000, 26.000000)">
                <mask id="mask-10" fill="white">
                    <use xlink:href="#path-9"></use>
                </mask>
                <g id="Clip-24"></g>
                <path d="M2.84148,0.2659375 C2.84148,0.2659375 -1.10052,3.9203125 1.12248,4.8878125 C3.34608,5.8546875 2.84148,0.2659375 2.84148,0.2659375" id="Fill-23" fill="#2E2B28" mask="url(#mask-10)"></path>
            </g>
            <g id="Group-28" transform="translate(15.000000, 26.000000)">
                <mask id="mask-12" fill="white">
                    <use xlink:href="#path-11"></use>
                </mask>
                <g id="Clip-27"></g>
                <path d="M2.67306,0.2659375 C2.67306,0.2659375 -1.26894,3.9203125 0.95406,4.8878125 C3.17766,5.8546875 2.67306,0.2659375 2.67306,0.2659375" id="Fill-26" fill="#2E2B28" mask="url(#mask-12)"></path>
            </g>
            <g id="Group-31" transform="translate(20.000000, 26.000000)">
                <mask id="mask-14" fill="white">
                    <use xlink:href="#path-13"></use>
                </mask>
                <g id="Clip-30"></g>
                <path d="M2.60946,0.2659375 C2.60946,0.2659375 -1.33314,3.9203125 0.89106,4.8878125 C3.11406,5.8546875 2.60946,0.2659375 2.60946,0.2659375" id="Fill-29" fill="#2E2B28" mask="url(#mask-14)"></path>
            </g>
            <path d="M3.02073272,13 C3.02073272,13 3.00803736,13.089387 2.96934673,13.2272443 C2.95181504,13.2939698 2.91372896,13.3833568 2.91614712,13.4633015 C2.9173562,13.5508 2.89740635,13.6150075 2.91493804,13.7069124 C2.92037891,13.790634 2.92884248,13.8699492 2.95967408,13.9423401 C2.96995127,14.0128424 3.02375542,14.07705 3.05095977,14.1399986 C3.07695503,14.1702139 3.09448672,14.2016881 3.11020479,14.2337919 C3.13922276,14.2646367 3.16582256,14.2954815 3.18637696,14.3294737 C3.24622652,14.3892749 3.29156709,14.4654426 3.3683438,14.5239848 C3.4287979,14.5963757 3.51041094,14.6511409 3.58235132,14.7210138 C3.6645689,14.7732611 3.7383229,14.8513174 3.82477227,14.9004172 C3.98860288,15.0225375 4.16452432,15.1163308 4.33198218,15.2038293 C4.41661792,15.2560767 4.49762642,15.2793676 4.57621675,15.3183957 C4.65480708,15.3536469 4.727352,15.3800853 4.78901519,15.3977109 C4.91415518,15.439257 5,15.4738787 5,15.4738787 C5,15.4738787 4.95224126,15.5424926 4.8422148,15.6432103 C4.7878061,15.6935692 4.71767935,15.7590357 4.62760274,15.7986933 C4.53813066,15.8433868 4.43112691,15.9132597 4.30961416,15.9365507 C4.06598413,16.0045351 3.75464551,16.031603 3.4390751,15.9478814 C3.27826719,15.9170366 3.12169107,15.8440163 2.96571949,15.76596 C2.81277061,15.6765731 2.66405352,15.5733374 2.53044996,15.439257 C2.39563731,15.3127304 2.28137906,15.1471756 2.18827974,14.976585 C2.09457588,14.802847 2.03351724,14.6077064 2.0093356,14.4081594 C1.99361753,14.2098715 1.99119937,14.009695 2.05528072,13.8384749 C2.10001675,13.659701 2.1876752,13.5212141 2.27654273,13.4072772 C2.35150582,13.2883044 2.48269122,13.2140251 2.56611788,13.1491881 C2.65256724,13.0761678 2.73418028,13.0723909 2.80067979,13.0484704 C2.93367881,13.0113307 3.02073272,13 3.02073272,13" id="Fill-32" fill="#2E2B28"></path>
        </g>
    </g>
</svg>