<?xml version="1.0" encoding="UTF-8"?>
<svg width="28px" height="28px" viewBox="0 0 28 28" version="1.1" xmlns="http://www.w3.org/2000/svg" xmlns:xlink="http://www.w3.org/1999/xlink">
    <!-- Generator: Sketch 48.2 (47327) - http://www.bohemiancoding.com/sketch -->
    <title>Page 1</title>
    <desc>Created with Sketch.</desc>
    <defs>
        <polygon id="path-1" points="0.0257333333 0.287 1.33706667 0.287 1.33706667 4.847025 0.0257333333 4.847025"></polygon>
        <polygon id="path-3" points="0 0.464166521 4.92351391 0.464166521 4.92351391 1.70533348 0 1.70533348"></polygon>
    </defs>
    <g id="Mobile-Copy" stroke="none" stroke-width="1" fill="none" fill-rule="evenodd" transform="translate(-182.000000, -11.000000)">
        <g id="Page-1" transform="translate(182.000000, 11.000000)">
            <path d="M19.7042358,11.6159528 C18.5849112,8.53437496 15.2563232,6.45309187 11.7797385,7.12706016 C7.88587824,7.88222944 5.45114698,11.4149804 6.10617891,15.1152084 C6.80181641,19.0448292 11.2556061,20.5196423 14.8962159,19.840599 C19.0935494,19.0580244 20.7263207,15.2623852 19.7042358,11.6159528 C19.5300593,10.9947652 18.5159886,11.2586685 18.6912337,11.8813786 C19.557842,14.9720916 18.4160776,17.7004452 15.1088609,18.7545356 C11.8983495,19.7781757 8.39718783,18.3931912 7.24901195,15.3243009 C6.10564463,12.2650533 8.54839014,8.99011556 11.609302,8.17709057 C14.6151826,7.37827574 17.7113572,9.18296793 18.6912337,11.8813786 C18.9108244,12.4858185 19.9259636,12.2259753 19.7042358,11.6159528" id="Fill-1" fill="#2E2B28"></path>
            <g id="Group-5" transform="translate(12.000000, 0.000000)">
                <mask id="mask-2" fill="white">
                    <use xlink:href="#path-1"></use>
                </mask>
                <g id="Clip-4"></g>
                <path d="M0.0257333333,0.76265 L0.0257333333,4.37115 C0.0257333333,5.00565 1.33706667,5.00565 1.33706667,4.37115 L1.33706667,0.76265 C1.33706667,0.12815 0.0257333333,0.12815 0.0257333333,0.76265" id="Fill-3" fill="#2E2B28" mask="url(#mask-2)"></path>
            </g>
            <path d="M14.0018713,23.5286979 C13.9758793,24.8568033 14.2289189,26.1465337 14.2484129,27.4713021 C14.258351,28.1753982 15.0105895,28.1770666 14.9998869,27.4713021 C14.9807751,26.1470899 14.7273533,24.8556909 14.7537275,23.5286979 C14.7671058,22.8229334 14.0156318,22.8246018 14.0018713,23.5286979" id="Fill-6" fill="#2E2B28"></path>
            <path d="M9.08235571,23.229357 C8.44902601,24.2725709 7.80224241,25.314817 7.08818933,26.3077089 C6.72543243,26.8123806 7.57601764,27.2875365 7.93428991,26.7881873 C8.64884128,25.7948116 9.29512658,24.7530493 9.92845628,23.7098354 C10.2498549,23.1795188 9.40275775,22.7014598 9.08235571,23.229357" id="Fill-8" fill="#2E2B28"></path>
            <path d="M20.1571615,21.933767 C20.9422958,22.7274139 21.5041485,23.7596661 22.0893508,24.7498783 C22.4371644,25.3384381 23.2665659,24.7805561 22.9148607,24.185747 C22.2868505,23.1222489 21.677812,21.9962589 20.8338169,21.1440969 C20.3697412,20.6748398 19.6896806,21.4616693 20.1571615,21.933767" id="Fill-10" fill="#2E2B28"></path>
            <path d="M23.5000527,15.7534826 C24.8450988,15.7267385 26.1580573,15.9800427 27.4999473,15.9999097 C28.1674731,16.0094611 28.165895,15.258336 27.4999473,15.2484025 C26.1580573,15.2285355 24.8450988,14.9752314 23.5000527,15.0019754 C22.834105,15.0153474 22.8325269,15.7668546 23.5000527,15.7534826" id="Fill-12" fill="#2E2B28"></path>
            <path d="M22.7971353,10.9031699 C23.7388236,10.247849 24.6937829,9.54629736 25.7189679,9.0412264 C26.3537642,8.72916883 25.8008057,7.74965479 25.1704331,8.05997871 C24.145248,8.56504966 23.1902887,9.26660131 22.2486005,9.92192221 C21.6674411,10.3258634 22.2109993,11.3105784 22.7971353,10.9031699" id="Fill-14" fill="#2E2B28"></path>
            <path d="M18.8936779,5.77750178 C19.5662508,4.76581895 20.239298,3.75361274 20.9113965,2.7419299 C21.267604,2.20599445 20.4579553,1.69308748 20.1064909,2.22274244 C19.4334437,3.23442527 18.7608709,4.24610811 18.0887724,5.25779094 C17.7320906,5.79424977 18.5422136,6.30663337 18.8936779,5.77750178" id="Fill-16" fill="#2E2B28"></path>
            <path d="M4.10343531,3.85204125 C4.8242967,4.84568575 5.54515809,5.83883836 6.26601948,6.83199096 C6.62146308,7.32192657 7.2480231,6.63178635 6.89620648,6.14775358 C6.17534509,5.15460098 5.4544837,4.16095647 4.73407568,3.16780386 C4.3781787,2.67836016 3.75252542,3.36800848 4.10343531,3.85204125" id="Fill-18" fill="#2E2B28"></path>
            <path d="M0.392724011,10.8994711 C1.70573284,11.2416946 3.02161352,11.5834569 4.31624253,11.9694961 C5.00031668,12.1733543 5.29267079,11.2961183 4.61663781,11.0945662 C3.32200881,10.7089882 2.00612813,10.3672259 0.692544925,10.0245412 C-0.00186788193,9.84328269 -0.297668209,10.7195962 0.392724011,10.8994711" id="Fill-20" fill="#2E2B28"></path>
            <g id="Group-24" transform="translate(0.000000, 15.000000)">
                <mask id="mask-4" fill="white">
                    <use xlink:href="#path-3"></use>
                </mask>
                <g id="Clip-23"></g>
                <path d="M0.528166667,1.70525 C1.82316667,1.68625 3.10038889,1.46625 4.39538889,1.44725 C5.09927778,1.43725 5.09983333,0.45375 4.39538889,0.46425 C3.10038889,0.48325 1.82316667,0.70325 0.528166667,0.72175 C-0.175722222,0.73225 -0.176833333,1.71575 0.528166667,1.70525" id="Fill-22" fill="#2E2B28" mask="url(#mask-4)"></path>
            </g>
            <path d="M2.78603158,22.8539217 C3.42554695,22.1524149 4.18867762,21.660512 4.84370191,20.9802079 C5.29893467,20.5064787 4.65896316,19.6698803 4.20920414,20.1375516 C3.5537237,20.8190673 2.79469834,21.3067296 2.15153382,22.0112654 C1.70542396,22.5007452 2.34357088,23.3391609 2.78603158,22.8539217" id="Fill-25" fill="#2E2B28"></path>
            <path d="M11,12.5763881 L11,12.4232781 C11,11.8589073 10,11.8589073 10,12.4232781 L10,12.5763881 C10,13.141204 11,13.141204 11,12.5763881" id="Fill-27" fill="#2E2B28"></path>
            <path d="M15.4998029,13 C16.1667324,13 16.1667324,12 15.4998029,12 C14.833399,12 14.833399,13 15.4998029,13" id="Fill-29" fill="#2E2B28"></path>
            <path d="M11.0074619,15.291849 C10.9522314,15.9677982 11.1941206,16.7349298 12.0512166,16.9562507 C12.9297911,17.1831368 13.6641525,16.4827867 13.967409,15.8860336 C14.1484424,15.5307215 13.524542,15.2212147 13.3419745,15.5799515 C13.1532702,15.951959 12.84132,16.4023063 12.2900375,16.3817582 C11.724436,16.3603538 11.7060258,15.6039243 11.7321069,15.291849 C11.7638133,14.9014338 11.0396797,14.9040023 11.0074619,15.291849" id="Fill-31" fill="#2E2B28"></path>
        </g>
    </g>
</svg>