<?xml version="1.0" encoding="UTF-8"?>
<svg width="15px" height="23px" viewBox="0 0 15 23" version="1.1" xmlns="http://www.w3.org/2000/svg" xmlns:xlink="http://www.w3.org/1999/xlink">
    <!-- Generator: Sketch 48.2 (47327) - http://www.bohemiancoding.com/sketch -->
    <title>Page 1</title>
    <desc>Created with Sketch.</desc>
    <defs>
        <polygon id="path-1" points="0 0 15 0 15 23 0 23"></polygon>
    </defs>
    <g id="Mobile-Copy-3" stroke="none" stroke-width="1" fill="none" fill-rule="evenodd" transform="translate(-185.000000, -16.000000)">
        <g id="Page-1" transform="translate(185.000000, 16.000000)">
            <mask id="mask-2" fill="white">
                <use xlink:href="#path-1"></use>
            </mask>
            <g id="Clip-2"></g>
            <path d="M14.1105251,7.24441729 L14.0814364,7.0915286 L14.1076163,7.24326776 L14.1105251,7.24441729 Z M14.1384503,7.42719401 L14.1442681,7.42029677 L14.1442681,7.419722 L14.1384503,7.42661924 L14.1384503,7.42719401 Z M9.04559131,7.77895297 L9.04442776,7.77780343 C9.04442776,7.77780343 9.04500954,7.7783782 9.04559131,7.77895297 Z M7.47305328,11.7006056 C7.65107645,11.8661392 7.72903431,12.1046685 7.72496189,12.3023893 C7.72496189,12.4317124 7.69936378,12.5501149 7.65980308,12.6690922 L5.35946442,19.0651277 L13.4269394,7.77320527 L8.96239748,8.51695706 C8.89491157,8.52787768 8.82800743,8.53247584 8.76226685,8.53247584 C8.57726238,8.53362538 8.3620056,8.48591951 8.18049177,8.33303081 C7.99606907,8.18244119 7.90065796,7.93414075 7.90589394,7.7312471 C7.90589394,7.55306854 7.95767192,7.39673122 8.02690315,7.26453423 L11.0474794,1.29957591 L5.25125426,2.81869182 C5.15467959,2.81869182 4.8486659,3.09515597 4.84052105,3.19056771 L1.30391036,12.8139342 L6.58933694,11.5086325 C6.6789303,11.4867913 6.77259608,11.4729968 6.87091607,11.4729968 L6.88022447,11.4729968 C7.0733738,11.4729968 7.30084786,11.5362215 7.47305328,11.7006056 Z M3.08006967,22.6890497 C3.00676601,22.5442078 3.00967488,22.4574176 3.00734778,22.3924686 C3.01374731,22.204519 3.05156269,22.1200278 3.09461405,21.984957 L6.42934879,12.7133495 L1.12705073,14.0226745 C1.04036625,14.043941 0.948445785,14.0571607 0.851871122,14.0571607 C0.657558246,14.058885 0.427175315,13.9973847 0.252061017,13.8312763 C0.073456068,13.6657426 -0.00392001725,13.4272133 0.000152408289,13.2300673 C0.000152408289,13.0921226 0.0292411622,12.9708462 0.0693836425,12.8587662 L3.76423716,2.80547212 C3.98589346,2.27381029 4.40244442,1.89791101 4.95862139,1.72662968 L11.3732734,0.0448540018 C11.4774111,0.0149659855 11.57864,2.19774243e-05 11.6833595,2.19774243e-05 C11.8497472,-0.00112756166 12.0551138,0.0425549236 12.2302281,0.193144544 C12.4065059,0.342009855 12.489118,0.578814907 12.4827185,0.761591622 C12.4821367,0.938620641 12.432104,1.08748595 12.3640364,1.22600541 L9.27888312,7.31741303 L13.9860253,6.53342737 L13.9860253,6.53400214 C14.0546747,6.52193198 14.1227424,6.51445997 14.1931372,6.51445997 C14.3473076,6.51675905 14.5294032,6.54377322 14.7097535,6.6725216 C14.8930126,6.7989709 15.0087859,7.05359381 14.9994775,7.25073976 C14.9948233,7.49271774 14.9052299,7.66055044 14.8005104,7.81171483 L4.24769225,22.5798435 C4.19242362,22.6568626 4.14122741,22.7212368 4.07548683,22.7867605 C3.99171121,22.837915 3.97483974,22.9586166 3.60134014,22.9982757 C3.59203174,22.9994252 3.58272334,23 3.57341493,23 C3.37968383,23 3.13650185,22.8333168 3.08006967,22.6890497 Z" id="Fill-1" fill="#2E2B28" mask="url(#mask-2)"></path>
        </g>
    </g>
</svg>